<svg xmlns="http://www.w3.org/2000/svg" xmlns:xlink="http://www.w3.org/1999/xlink" width="2000" zoomAndPan="magnify" viewBox="0 0 1500 1499.999933" height="2000" preserveAspectRatio="xMidYMid meet" version="1.0"><path fill="#000000" d="M 26.054688 661.078125 L 26.054688 795.671875 L 99.945312 795.671875 L 99.945312 691.867188 L 120.628906 691.867188 L 195.144531 795.671875 L 239.910156 795.671875 C 264.53125 795.671875 284.664062 795.078125 284.652344 794.351562 C 284.636719 793.628906 275.019531 780.363281 263.277344 764.882812 C 198.253906 679.152344 184.171875 659.796875 185.085938 657.414062 C 185.625 656.007812 197.414062 639.238281 211.28125 620.140625 C 268.886719 540.832031 277.640625 528.625 277.640625 527.582031 C 277.640625 526.980469 257.90625 526.488281 233.785156 526.488281 L 189.933594 526.488281 L 160.453125 569.152344 C 144.234375 592.617188 128.683594 615.183594 125.886719 619.292969 C 120.871094 626.679688 120.679688 626.773438 110.378906 626.773438 L 99.945312 626.773438 L 99.945312 526.488281 L 26.054688 526.488281 Z M 316.785156 527.773438 C 315.15625 528.339844 314.585938 535.394531 314.585938 554.90625 C 314.585938 580.96875 314.628906 581.265625 318.40625 580.710938 C 321.863281 580.203125 322.242188 579.054688 322.363281 568.710938 L 322.503906 557.277344 L 337.015625 556.765625 L 351.53125 556.253906 L 351.53125 568.640625 C 351.53125 579.738281 351.886719 581.027344 354.953125 581.027344 C 358.136719 581.027344 358.410156 579.453125 358.910156 558.203125 C 359.503906 533.011719 358.78125 527.367188 354.972656 527.367188 C 353.058594 527.367188 352.277344 530.152344 351.886719 538.363281 L 351.363281 549.359375 L 322.175781 549.359375 L 322.339844 538.820312 C 322.5 528.566406 321.304688 526.195312 316.785156 527.773438 M 500.6875 527.789062 C 498.070312 528.390625 497.597656 531.300781 497.167969 549.296875 L 496.675781 570.109375 L 483.726562 549.179688 C 471.308594 529.105469 470.535156 528.246094 464.816406 528.246094 L 458.851562 528.246094 L 458.851562 554.636719 C 458.851562 579.855469 459.007812 581.027344 462.371094 581.027344 C 465.703125 581.027344 465.890625 579.835938 465.945312 558.597656 C 466.007812 532.578125 464.664062 532.296875 483.167969 562.183594 C 494.226562 580.046875 495.226562 581.136719 500.195312 580.65625 L 505.472656 580.148438 L 505.964844 554.777344 C 506.234375 540.820312 505.835938 528.882812 505.085938 528.25 C 504.328125 527.613281 502.351562 527.40625 500.6875 527.789062 M 535.34375 528.585938 C 534.824219 529.945312 534.621094 542.101562 534.890625 555.601562 L 535.382812 580.148438 L 551.214844 580.617188 C 571.796875 581.226562 577.632812 578.226562 579.449219 566.121094 C 581.222656 554.3125 579.617188 538.152344 576.148438 532.859375 C 573.261719 528.453125 572.421875 528.246094 557.476562 528.246094 C 548.867188 528.246094 540.582031 527.769531 539.058594 527.183594 C 537.488281 526.582031 535.882812 527.191406 535.34375 528.585938 M 609.125 528.101562 C 608.722656 528.503906 608.394531 540.578125 608.394531 554.929688 L 608.394531 581.027344 L 624.914062 581.027344 C 638.035156 581.027344 642.203125 580.394531 645.199219 577.949219 C 650.382812 573.710938 651.910156 563.027344 648.152344 557.292969 C 645.832031 553.75 645.644531 552.074219 647.246094 549.089844 C 649.40625 545.046875 648.425781 532.386719 645.742188 529.703125 C 644.148438 528.109375 610.582031 526.640625 609.125 528.101562 M 692.789062 530.820312 C 692.019531 532.789062 689.8125 538.757812 687.886719 544.082031 C 685.253906 551.292969 682.5625 558.484375 679.816406 565.652344 C 674.332031 579.9375 674.253906 581.027344 678.746094 581.027344 C 681.074219 581.027344 683.097656 578.976562 684.8125 574.871094 L 687.382812 568.710938 L 711.921875 568.710938 L 713.953125 574.871094 C 715.339844 579.066406 717.0625 581.027344 719.371094 581.027344 C 723.820312 581.027344 723.695312 579.917969 717.328125 562.9375 C 703.652344 526.472656 704.273438 527.675781 699.035156 527.445312 C 695.664062 527.296875 693.761719 528.324219 692.789062 530.820312 M 749.859375 528.910156 C 749.40625 530.089844 749.257812 542.101562 749.527344 555.601562 L 750.019531 580.148438 L 765.703125 580.660156 C 776.785156 581.023438 781.785156 580.53125 782.742188 578.984375 C 785.210938 574.992188 782.488281 573.992188 769.183594 573.992188 L 756.003906 573.992188 L 756.285156 550.808594 C 756.53125 530.359375 756.21875 527.578125 753.625 527.199219 C 752.007812 526.960938 750.3125 527.730469 749.859375 528.910156 M 811.929688 527.625 C 811.261719 528.289062 810.71875 540.578125 810.71875 554.929688 L 810.71875 581.027344 L 827.136719 581.027344 C 844.304688 581.027344 846.273438 580.515625 844.714844 576.457031 C 844.023438 574.648438 840.304688 573.992188 830.8125 573.992188 L 817.855469 573.992188 L 817.367188 550.824219 C 816.910156 529.265625 815.652344 523.898438 811.929688 527.625 M 873.070312 528.414062 C 871.070312 531.652344 873.78125 566.074219 876.039062 566.074219 C 879.203125 566.074219 880.460938 559.160156 880.328125 542.492188 C 880.230469 529.824219 879.769531 527.644531 877.140625 527.253906 C 875.449219 527.003906 873.617188 527.527344 873.070312 528.414062 M 1328.867188 531.023438 C 1326.554688 533.519531 1324.152344 538.074219 1323.527344 541.140625 C 1322.90625 544.210938 1321.503906 549.304688 1320.414062 552.464844 C 1318.785156 557.199219 1318.964844 559.105469 1321.441406 563.292969 C 1323.089844 566.089844 1324.441406 571.542969 1324.441406 575.414062 L 1324.441406 582.457031 L 1315.207031 583.628906 C 1301.546875 585.363281 1289.347656 591.996094 1275.28125 605.328125 C 1263.378906 616.609375 1262.6875 617 1261.691406 613.027344 C 1261.113281 610.722656 1254.011719 600.402344 1245.914062 590.09375 C 1234.777344 575.921875 1231.457031 570.492188 1232.308594 567.832031 C 1232.925781 565.898438 1233.792969 560.183594 1234.234375 555.132812 C 1234.882812 547.695312 1234.308594 544.933594 1231.21875 540.59375 C 1222.695312 528.621094 1207.191406 526.8125 1197.363281 536.636719 C 1184.714844 549.285156 1192.285156 571.460938 1209.6875 572.722656 C 1212.621094 572.9375 1214.699219 573.636719 1214.300781 574.28125 C 1213.90625 574.921875 1214.222656 575.714844 1215.007812 576.039062 C 1215.789062 576.363281 1221.917969 588.109375 1228.617188 602.140625 C 1253.136719 653.460938 1252.375 652.214844 1259.59375 652.816406 C 1264.871094 653.257812 1268.589844 651.65625 1280.707031 643.71875 C 1288.796875 638.421875 1295.695312 634.867188 1296.039062 635.824219 C 1296.382812 636.777344 1295.289062 651.390625 1293.613281 668.296875 C 1291.933594 685.207031 1290.929688 699.40625 1291.382812 699.859375 C 1291.835938 700.3125 1296.402344 699.886719 1301.527344 698.914062 C 1306.65625 697.941406 1313.710938 697.246094 1317.203125 697.363281 C 1321.988281 697.527344 1320.945312 697.960938 1313.007812 699.105469 C 1289.691406 702.472656 1288.941406 702.964844 1271.726562 726.167969 L 1256.066406 747.273438 L 1264.800781 749.242188 C 1269.601562 750.320312 1274.097656 751.835938 1274.792969 752.605469 C 1275.492188 753.378906 1274.730469 753.53125 1273.105469 752.949219 C 1271.484375 752.371094 1267.519531 751.398438 1264.300781 750.796875 C 1258.582031 749.722656 1258.230469 750.019531 1249.203125 763.707031 C 1244.121094 771.410156 1237.917969 782.339844 1235.417969 787.988281 C 1232.921875 793.636719 1228.410156 800.25 1225.402344 802.683594 C 1206.027344 818.335938 1195.957031 830.5 1186.453125 849.734375 C 1183 856.71875 1180.175781 863.28125 1180.175781 864.324219 C 1180.175781 865.363281 1182.355469 868.207031 1185.015625 870.640625 L 1189.855469 875.066406 L 1184.9375 872.0625 C 1180.652344 869.445312 1179.4375 869.367188 1175.511719 871.46875 C 1167.972656 875.503906 1157.203125 893.9375 1153.964844 908.347656 L 1152.402344 915.308594 L 1161.753906 915.308594 C 1170.5625 915.308594 1171.488281 914.871094 1177.625 907.832031 C 1181.214844 903.71875 1186.402344 895.605469 1189.15625 889.796875 C 1192.574219 882.605469 1200.632812 872.238281 1214.464844 857.25 C 1233.808594 836.292969 1234.597656 835.144531 1231.222656 832.84375 C 1229.273438 831.515625 1227.679688 829.679688 1227.679688 828.761719 C 1227.679688 827.839844 1228.921875 828.332031 1230.445312 829.855469 C 1237.152344 836.5625 1246.75 830.964844 1265.835938 809.214844 C 1274.496094 799.347656 1284.996094 786.917969 1289.171875 781.597656 C 1293.347656 776.273438 1297.777344 772.136719 1299.019531 772.402344 C 1300.261719 772.667969 1305.894531 767.71875 1311.539062 761.40625 C 1317.1875 755.09375 1322.257812 749.929688 1322.808594 749.929688 C 1323.363281 749.925781 1324.851562 757.449219 1326.109375 766.640625 C 1328.289062 782.484375 1329.734375 785.84375 1332.472656 781.414062 C 1334.160156 778.6875 1350.996094 771.066406 1355.230469 771.113281 C 1357.167969 771.136719 1354.519531 772.613281 1349.351562 774.402344 C 1335.042969 779.34375 1334.261719 780.664062 1338.46875 792.886719 C 1340.402344 798.511719 1344.769531 808.902344 1348.167969 815.972656 C 1352.566406 825.113281 1354.351562 831.234375 1354.351562 837.179688 C 1354.351562 842.636719 1355.417969 846.746094 1357.429688 849.027344 C 1360.476562 852.480469 1360.460938 852.484375 1355.699219 849.421875 C 1350.929688 846.351562 1350.871094 846.363281 1349.101562 851.019531 C 1346.730469 857.261719 1346.671875 856.789062 1351.75 872.867188 C 1355 883.15625 1357.621094 888.117188 1361.5625 891.433594 C 1371.109375 899.46875 1379.027344 896.175781 1378.953125 884.195312 C 1378.921875 879.09375 1374.851562 858.507812 1372.910156 853.613281 C 1372.207031 851.839844 1374.496094 847.808594 1379.304688 842.34375 L 1386.796875 833.835938 L 1386.382812 817.898438 C 1386.15625 809.136719 1385.136719 796.789062 1384.113281 790.460938 C 1383.09375 784.136719 1381.933594 776.476562 1381.539062 773.449219 C 1381.140625 770.417969 1377.984375 756.167969 1374.523438 741.78125 C 1371.0625 727.390625 1368.171875 713.640625 1368.097656 711.222656 C 1367.933594 705.730469 1378.738281 667.261719 1381.414062 663.828125 C 1383.035156 661.746094 1382.761719 661.5625 1379.863281 662.777344 C 1377.925781 663.59375 1370.800781 664.464844 1364.027344 664.714844 C 1357.253906 664.96875 1354.089844 664.847656 1356.992188 664.453125 C 1378.152344 661.566406 1386.019531 657.613281 1386.019531 649.859375 C 1386.019531 647.890625 1385.257812 648.03125 1382.519531 650.507812 C 1380.304688 652.511719 1375.617188 653.863281 1369.765625 654.191406 C 1364.675781 654.472656 1362.488281 654.351562 1364.90625 653.910156 C 1376.214844 651.867188 1382.589844 649.207031 1385.722656 645.21875 C 1388.851562 641.242188 1389.339844 641.125 1391.539062 643.796875 C 1392.855469 645.398438 1397.039062 648.964844 1400.832031 651.722656 L 1407.730469 656.730469 L 1412.144531 652.75 L 1416.554688 648.761719 L 1412.980469 654.042969 C 1409.585938 659.054688 1409.511719 660.292969 1411.457031 678.671875 C 1413.132812 694.484375 1413.066406 699.535156 1411.097656 706.277344 C 1407.992188 716.921875 1408.746094 731.453125 1412.410156 731.453125 C 1413.867188 731.453125 1415.800781 728.898438 1416.734375 725.734375 C 1417.65625 722.589844 1418.949219 720.019531 1419.605469 720.019531 C 1421.183594 720.019531 1422.910156 726.703125 1422.941406 732.902344 C 1422.992188 743.871094 1434.847656 733.164062 1436.398438 720.746094 C 1437.023438 715.742188 1436.148438 711.695312 1433.191406 705.941406 L 1429.125 698.027344 L 1432.445312 672.078125 L 1435.761719 646.132812 L 1430.683594 638.78125 C 1421.914062 626.089844 1389.222656 594.386719 1380.742188 590.34375 C 1367.820312 584.191406 1358.386719 581.929688 1355.527344 584.300781 C 1353.449219 586.027344 1353.351562 585.128906 1354.886719 578.40625 C 1355.886719 574.042969 1357.707031 570.472656 1358.929688 570.472656 C 1361.867188 570.472656 1362.597656 566.949219 1362.964844 550.933594 C 1363.257812 538.355469 1362.964844 537.21875 1358.109375 532.019531 C 1353.492188 527.078125 1351.875 526.488281 1343.003906 526.488281 C 1334.585938 526.488281 1332.429688 527.179688 1328.867188 531.023438 M 394.738281 552.4375 C 389.96875 565.742188 385.730469 577.621094 385.324219 578.828125 C 384.882812 580.136719 386.121094 581.027344 388.378906 581.027344 C 391.019531 581.027344 392.742188 579.417969 394.023438 575.738281 C 396.144531 569.648438 399.949219 568.257812 412.34375 569.042969 C 420.234375 569.542969 421.253906 570.113281 423.539062 575.308594 C 425.054688 578.742188 427.335938 581.027344 429.257812 581.027344 C 433.449219 581.027344 433.394531 580.570312 426.996094 563.265625 C 423.929688 554.980469 420.914062 546.679688 417.945312 538.363281 C 414.625 528.980469 413.96875 528.246094 408.890625 528.246094 C 403.445312 528.246094 403.359375 528.394531 394.738281 552.4375 M 543.296875 553.757812 L 543.296875 573.992188 L 555.574219 573.992188 C 571.738281 573.992188 573.898438 571.234375 572.917969 551.839844 C 572.085938 535.367188 570.21875 533.523438 554.398438 533.523438 L 543.296875 533.523438 Z M 615.429688 541.359375 L 615.429688 549.359375 L 626.902344 549.359375 C 637.527344 549.359375 638.53125 549.023438 640.445312 544.824219 C 643.925781 537.183594 640.644531 534.484375 627.125 533.882812 L 615.429688 533.363281 Z M 404.429688 547.257812 C 402.78125 551.917969 401.121094 556.578125 399.453125 561.234375 C 398.875 562.828125 401.375 563.433594 408.519531 563.433594 C 413.945312 563.433594 418.386719 562.757812 418.386719 561.933594 C 418.386719 560.28125 410.089844 536.957031 409.175781 536.046875 C 408.863281 535.734375 406.730469 540.777344 404.429688 547.257812 M 694.089844 548.257812 C 691.46875 555.308594 689.324219 561.609375 689.324219 562.257812 C 689.324219 562.90625 693.679688 563.433594 699 563.433594 C 704.320312 563.433594 708.675781 562.660156 708.675781 561.714844 C 708.675781 560.0625 700.257812 536.835938 699.316406 535.894531 C 699.066406 535.644531 696.714844 541.207031 694.089844 548.257812 M 615.429688 565.269531 L 615.429688 574.144531 L 628.066406 573.628906 C 639.902344 573.144531 640.773438 572.832031 641.882812 568.664062 C 642.535156 566.214844 642.414062 562.457031 641.621094 560.304688 C 640.316406 556.773438 638.980469 556.398438 627.804688 556.398438 L 615.429688 556.398438 Z M 872.59375 576.046875 C 872.980469 578.78125 874.347656 580.148438 876.691406 580.148438 C 881.929688 580.148438 881.410156 573.28125 876.113281 572.53125 C 872.699219 572.046875 872.109375 572.636719 872.59375 576.046875 M 1034.871094 606.480469 C 1012.464844 610.550781 1000.25 619.007812 992.097656 636.097656 C 984.628906 651.761719 982.535156 670.960938 983.542969 714.648438 C 984.539062 757.890625 986.761719 766.234375 1000.972656 780.078125 C 1014.78125 793.527344 1024.613281 796.507812 1055.265625 796.53125 C 1079.652344 796.550781 1081.175781 796.339844 1089.855469 791.761719 C 1099.144531 786.863281 1104.402344 781.050781 1108.890625 770.71875 C 1111.351562 765.050781 1111.429688 765.324219 1111.496094 780.316406 L 1111.5625 795.753906 L 1142.792969 795.273438 L 1174.019531 794.792969 L 1174.019531 606.539062 L 1142.792969 606.058594 L 1111.5625 605.578125 L 1111.5625 619.695312 C 1111.5625 627.457031 1110.96875 633.78125 1110.242188 633.742188 C 1109.515625 633.707031 1106.652344 630.09375 1103.871094 625.710938 C 1097.222656 615.222656 1088.5 609.695312 1073.609375 606.542969 C 1059.105469 603.46875 1051.53125 603.457031 1034.871094 606.480469 M 322.902344 608.257812 C 294.5 614.152344 280.425781 627.390625 272.816406 655.363281 C 270.441406 664.101562 269.84375 673.765625 269.910156 702.425781 C 269.992188 737.339844 270.15625 738.964844 275.011719 753.25 C 283.324219 777.714844 297.921875 789.621094 327.335938 795.929688 C 332.574219 797.050781 349.753906 797.480469 370.609375 797.011719 C 399.835938 796.351562 406.992188 795.644531 416.808594 792.441406 C 429.996094 788.140625 443.03125 777.867188 448.152344 767.746094 C 451.734375 760.664062 455.332031 745.519531 455.332031 737.527344 L 455.332031 732.335938 L 394.3125 732.335938 L 392.289062 739.085938 C 388.890625 750.425781 385.132812 752.480469 366.53125 753.167969 C 341 754.113281 335.039062 749.203125 332.832031 725.433594 L 331.671875 712.980469 L 455.859375 712.980469 L 454.773438 689.667969 C 452.425781 639.199219 440.75 618.839844 408.886719 609.652344 C 395.902344 605.910156 338.6875 604.980469 322.902344 608.257812 M 562.285156 608.039062 C 550.9375 611.214844 541.222656 618.34375 536.132812 627.234375 L 531.863281 634.6875 L 531.347656 621.054688 L 530.835938 607.417969 L 469.40625 607.417969 L 469.40625 795.671875 L 532.464844 795.671875 L 533.074219 734.535156 C 533.597656 682.363281 534.113281 672.445312 536.59375 666.914062 C 540.191406 658.894531 547.707031 654.796875 560.738281 653.738281 C 573.429688 652.707031 580.941406 656.957031 583.644531 666.707031 C 584.785156 670.808594 585.507812 697.050781 585.511719 734.535156 L 585.523438 795.671875 L 648.652344 795.671875 L 649.195312 734.535156 C 649.828125 663.425781 649.980469 662.617188 664.042969 656.398438 C 674.835938 651.625 688.019531 652.816406 694.339844 659.136719 C 700.648438 665.445312 701.417969 673.878906 701.53125 738.050781 L 701.640625 795.671875 L 764.976562 795.671875 L 764.976562 727.640625 C 764.976562 651.535156 764.019531 641.527344 755.542969 628.929688 C 743.910156 611.644531 725.574219 604.679688 695.238281 606.03125 C 680.429688 606.6875 675.722656 607.636719 667.691406 611.5625 C 656.867188 616.859375 649.417969 625.382812 646.257812 636.078125 L 644.152344 643.214844 L 641.996094 634.648438 C 639.34375 624.117188 628.28125 612.335938 618.066406 609.15625 C 607.714844 605.933594 572.328125 605.226562 562.285156 608.039062 M 873.71875 608.117188 C 861.625 611.375 853.679688 617.609375 847.714844 628.53125 L 842.429688 638.207031 L 844.664062 607.417969 L 780.808594 607.417969 L 780.808594 876.601562 L 844.144531 876.601562 L 844.214844 821.621094 C 844.28125 770.480469 844.480469 767.007812 847.058594 771.921875 C 851.152344 779.710938 859.910156 788.441406 867.894531 792.683594 C 873.683594 795.757812 878.761719 796.542969 896.457031 797.105469 C 914.804688 797.691406 919.832031 797.230469 930.5625 793.96875 C 947.3125 788.878906 959.457031 777.257812 965.566406 760.460938 C 969.4375 749.808594 969.761719 746.011719 970.398438 703.617188 C 971.03125 661.675781 970.804688 657.269531 967.46875 646.285156 C 961.261719 625.859375 945.976562 612.371094 923.667969 607.636719 C 911.460938 605.046875 884.148438 605.3125 873.71875 608.117188 M 1227.566406 642.167969 C 1204.660156 667.179688 1193.117188 694.894531 1191.203125 729.460938 C 1190.277344 746.207031 1192.203125 764.324219 1196.375 778.078125 C 1199.09375 787.042969 1210.015625 809.746094 1211.609375 809.746094 C 1212.359375 809.746094 1216.3125 806.886719 1220.394531 803.390625 C 1225.246094 799.242188 1229.914062 792.621094 1233.863281 784.300781 C 1237.1875 777.292969 1242.824219 767.320312 1246.390625 762.136719 C 1249.957031 756.949219 1253.0625 751.011719 1253.289062 748.9375 C 1253.660156 745.550781 1275.726562 714.109375 1284.164062 704.941406 C 1286.894531 701.972656 1288.035156 695.816406 1290.300781 671.816406 C 1291.832031 655.597656 1292.667969 641.910156 1292.152344 641.398438 C 1291.640625 640.886719 1285.371094 644.117188 1278.214844 648.574219 C 1264.394531 657.1875 1256.421875 658.785156 1251.542969 653.90625 C 1250.019531 652.378906 1246.804688 646.835938 1244.40625 641.589844 C 1242.003906 636.339844 1239.320312 632.050781 1238.4375 632.050781 C 1237.554688 632.050781 1232.660156 636.601562 1227.566406 642.167969 M 1438.761719 645.4375 C 1438.738281 646.296875 1437.234375 658.371094 1435.414062 672.261719 C 1432.214844 696.648438 1432.210938 697.710938 1435.28125 703.050781 C 1439.710938 710.765625 1440.90625 718.109375 1438.863281 725.136719 C 1435.292969 737.457031 1423.683594 743.773438 1419.386719 735.738281 C 1417.820312 732.8125 1416.949219 732.515625 1414.894531 734.222656 C 1412.863281 735.90625 1411.628906 735.691406 1408.855469 733.183594 C 1404.761719 729.476562 1404.511719 723.601562 1407.78125 707.980469 C 1409.511719 699.722656 1409.722656 692.175781 1408.582031 678.949219 C 1407.105469 661.839844 1406.800781 660.867188 1401.367188 656.117188 C 1390.804688 646.882812 1390.398438 646.933594 1386.074219 658.058594 C 1383.925781 663.589844 1379.492188 677.496094 1376.226562 688.964844 L 1370.28125 709.8125 L 1376.402344 735.859375 C 1385.234375 773.457031 1387.703125 788.578125 1388.949219 812.640625 L 1390.054688 834.011719 L 1382.894531 842.550781 L 1375.734375 851.09375 L 1378.058594 859.890625 C 1380.554688 869.324219 1380.953125 869.472656 1391.296875 864.679688 C 1444.191406 840.164062 1476.84375 786.464844 1473.378906 729.695312 C 1472.027344 707.546875 1468.753906 695.136719 1459 675.15625 C 1452.027344 660.859375 1438.855469 641.523438 1438.761719 645.4375 M 343.570312 652.097656 C 337.714844 654.652344 334.542969 660.179688 332.84375 670.8125 L 331.726562 677.792969 L 392.472656 677.792969 L 391.378906 669.804688 C 389.890625 658.949219 387.496094 655.066406 380.476562 652.132812 C 373.011719 649.011719 350.699219 648.996094 343.570312 652.097656 M 860.761719 654.9375 C 847.398438 659.082031 843.320312 672.347656 844.535156 707.703125 C 845.496094 735.570312 847.769531 741.578125 859.28125 746.671875 C 868.707031 750.839844 885.265625 750.671875 894.285156 746.320312 C 904.535156 741.371094 906.601562 733.507812 906.601562 699.472656 C 906.601562 671.578125 906.316406 668.875 902.925781 664.285156 C 900.902344 661.554688 896.988281 658.214844 894.226562 656.863281 C 888.039062 653.832031 868.03125 652.679688 860.761719 654.9375 M 1064.941406 654.332031 C 1059.449219 655.789062 1052.042969 663.671875 1049.65625 670.605469 C 1046.226562 680.582031 1046.722656 728.035156 1050.347656 736.175781 C 1054.476562 745.464844 1061.839844 748.734375 1079.015625 748.898438 C 1106.003906 749.160156 1110.652344 742.039062 1110.523438 700.683594 C 1110.457031 679.113281 1109.917969 674.085938 1107.046875 668.273438 C 1101.675781 657.398438 1095.894531 654.160156 1081.125 653.75 C 1074.160156 653.554688 1066.875 653.820312 1064.941406 654.332031 M 1311 766.746094 C 1306.296875 772.125 1300.964844 776.738281 1299.152344 777 C 1297.335938 777.257812 1292.585938 781.828125 1288.59375 787.15625 C 1275.753906 804.289062 1249.847656 830.597656 1242.984375 833.464844 C 1239.40625 834.960938 1236.476562 837.265625 1236.476562 838.589844 C 1236.476562 842.125 1254.742188 855.304688 1270.03125 862.800781 C 1289.613281 872.398438 1308.078125 876.601562 1330.660156 876.601562 C 1349.371094 876.601562 1349.476562 876.578125 1348.269531 872.644531 C 1345.316406 863.03125 1345.207031 852.472656 1348 847.070312 C 1352.023438 839.285156 1351.511719 829.667969 1346.53125 819.453125 C 1339.328125 804.675781 1335 794.089844 1335 791.25 C 1335 789.761719 1333.089844 787.820312 1330.753906 786.933594 C 1325.890625 785.082031 1325.144531 783.128906 1323.519531 767.960938 C 1322.867188 761.914062 1321.710938 756.964844 1320.941406 756.964844 C 1320.175781 756.964844 1315.699219 761.367188 1311 766.746094 M 1247.515625 780.347656 C 1244.476562 786.355469 1241.527344 793.648438 1240.957031 796.550781 C 1239.9375 801.753906 1239.953125 801.769531 1242.042969 797.429688 C 1247.328125 786.460938 1254.050781 770.433594 1253.570312 769.953125 C 1253.277344 769.660156 1250.550781 774.335938 1247.515625 780.347656 M 1379.261719 799.191406 C 1379.261719 801.609375 1379.660156 802.601562 1380.148438 801.390625 C 1380.636719 800.179688 1380.636719 798.203125 1380.148438 796.992188 C 1379.660156 795.78125 1379.261719 796.769531 1379.261719 799.191406 M 1380.347656 816.652344 C 1379.648438 821.898438 1378.0625 826.835938 1376.828125 827.621094 C 1375.199219 828.65625 1375.4375 829.054688 1377.71875 829.074219 C 1381.828125 829.109375 1382.828125 826.09375 1382.167969 815.679688 L 1381.621094 807.109375 Z M 1380.347656 816.652344 " fill-opacity="1" fill-rule="evenodd"/></svg>