<svg xmlns="http://www.w3.org/2000/svg" xmlns:xlink="http://www.w3.org/1999/xlink" width="2000" zoomAndPan="magnify" viewBox="0 0 1500 1499.999933" height="2000" preserveAspectRatio="xMidYMid meet" version="1.0"><defs><g/><clipPath id="dff849787f"><rect x="0" width="610" y="0" height="216"/></clipPath><clipPath id="cefe34e040"><rect x="0" width="987" y="0" height="150"/></clipPath></defs><path fill="#ff751f" d="M 560.414062 687.691406 C 572.851562 681.132812 588.417969 686.011719 595.058594 698.566406 C 601.664062 711.113281 596.890625 726.710938 584.445312 733.269531 C 571.984375 739.84375 556.445312 734.945312 549.835938 722.390625 C 543.214844 709.855469 547.984375 694.265625 560.414062 687.691406 M 551.136719 591.921875 L 840.703125 439.300781 C 859.207031 429.554688 863.527344 435.832031 872.335938 452.585938 L 959.621094 618.171875 C 966.394531 631.035156 961.507812 647.085938 948.726562 653.824219 L 807.453125 728.296875 L 837.917969 593.820312 C 839.636719 587.675781 833.179688 582.074219 827.308594 584.621094 L 779.023438 605.9375 L 792.289062 496.074219 C 793.039062 489.679688 785.230469 485.097656 780.027344 488.90625 L 699.230469 548.03125 C 697.835938 549.03125 696 552.902344 696.125 554.648438 L 703.234375 702.699219 C 703.5 708.070312 709.546875 711.632812 714.394531 709.210938 L 765.84375 683.753906 L 764.476562 750.953125 L 669.464844 801.035156 C 664.492188 803.640625 657.769531 806.550781 652.566406 804.007812 L 532.09375 745.296875 C 524.351562 741.519531 520.5 734.136719 521.734375 725.613281 L 539.132812 604.195312 C 539.984375 598.453125 546.199219 594.550781 551.136719 591.921875 Z M 551.136719 591.921875 " fill-opacity="1" fill-rule="evenodd"/><path fill="#1f1a17" d="M 570.675781 693.210938 C 568.914062 693.210938 567.210938 693.628906 565.644531 694.457031 C 563.117188 695.789062 561.25 698.066406 560.378906 700.835938 C 559.519531 703.605469 559.804688 706.527344 561.140625 709.078125 C 563.851562 714.199219 570.589844 716.371094 575.753906 713.632812 C 578.316406 712.28125 580.191406 710.011719 581.058594 707.242188 C 581.917969 704.464844 581.652344 701.539062 580.308594 699 C 578.441406 695.429688 574.746094 693.210938 570.675781 693.210938 M 570.765625 727.214844 C 562.117188 727.214844 554.25 722.476562 550.238281 714.835938 C 547.34375 709.394531 546.765625 703.113281 548.59375 697.191406 C 550.429688 691.269531 554.441406 686.429688 559.898438 683.535156 C 570.890625 677.722656 585.480469 682.300781 591.238281 693.246094 C 594.121094 698.710938 594.691406 704.976562 592.855469 710.898438 C 591.003906 716.820312 586.980469 721.675781 581.511719 724.542969 C 578.222656 726.296875 574.496094 727.214844 570.765625 727.214844 Z M 856.886719 416.394531 C 853.398438 416.394531 850.0625 417.210938 846.976562 418.832031 L 553.75 573.414062 C 547.875 576.5 544.714844 579.292969 544.339844 581.722656 L 523.269531 720.089844 C 522.351562 726.261719 525.054688 731.382812 530.691406 734.121094 L 656.753906 794.949219 C 659.472656 796.214844 665.363281 793.746094 668.914062 791.894531 L 758.085938 744.882812 L 759.1875 690.828125 L 716.328125 712.03125 C 707.863281 716.234375 696.640625 709.597656 696.183594 700.203125 L 689 550.714844 C 688.785156 546.921875 691.601562 540.96875 694.671875 538.738281 L 776.238281 479.058594 C 781.828125 474.960938 790.320312 476.140625 794.988281 481.375 C 797.625 484.347656 798.828125 488.136719 798.359375 492.015625 L 786.316406 592.183594 L 825.136719 575.046875 C 831.058594 572.496094 838.066406 574.460938 841.9375 579.570312 C 844.589844 583.066406 845.441406 587.460938 844.273438 591.632812 L 814.125 715.335938 L 962.15625 637.308594 C 972.585938 631.800781 976.589844 618.835938 971.101562 608.40625 L 875.921875 427.800781 C 872.203125 420.765625 864.910156 416.394531 856.886719 416.394531 Z M 658.769531 807.675781 C 656.085938 807.675781 653.601562 807.136719 651.371094 806.050781 L 525.320312 745.230469 C 514.777344 740.117188 509.339844 729.78125 511.074219 718.238281 L 532.144531 579.871094 C 533.496094 571.046875 541.835938 565.722656 548.007812 562.488281 L 841.238281 407.917969 C 857.253906 399.511719 878.441406 406.171875 886.832031 422.046875 L 982.011719 602.652344 C 990.6875 619.105469 984.363281 639.558594 967.914062 648.234375 L 807.769531 732.636719 C 805.632812 733.753906 803.015625 733.519531 801.097656 732.042969 C 799.175781 730.550781 798.328125 728.0625 798.910156 725.710938 L 832.34375 588.511719 C 831.726562 586.542969 831.160156 586.222656 830.640625 586.222656 L 781.375 607.855469 C 779.375 608.800781 777.003906 608.480469 775.203125 607.179688 C 773.417969 605.855469 772.5 603.683594 772.769531 601.476562 L 786.117188 490.554688 C 785.347656 489.105469 784.714844 488.804688 784.164062 488.804688 L 701.929688 548.714844 C 702.015625 548.765625 701.398438 550.078125 701.304688 550.632812 L 708.496094 699.601562 C 708.546875 700.4375 709.523438 701.105469 710.304688 701.105469 L 762.828125 675.253906 C 764.761719 674.320312 767.046875 674.425781 768.863281 675.578125 C 770.699219 676.738281 771.785156 678.75 771.734375 680.910156 L 770.351562 748.757812 C 770.300781 751.011719 769.050781 753.046875 767.0625 754.097656 L 674.65625 802.804688 C 670.332031 805.074219 664.625 807.675781 658.769531 807.675781 Z M 658.769531 807.675781 " fill-opacity="1" fill-rule="evenodd"/><g transform="matrix(1, 0, 0, 1, 449, 826)"><g clip-path="url(#dff849787f)"><g fill="#1f1a17" fill-opacity="1"><g transform="translate(1.776027, 159.183163)"><g><path d="M 12.40625 0 L 12.40625 -103.421875 L 35.90625 -103.421875 L 35.90625 -22.015625 L 81.109375 -22.015625 L 81.109375 0 Z M 12.40625 0 "/></g></g></g><g fill="#1f1a17" fill-opacity="1"><g transform="translate(94.24658, 159.183163)"><g><path d="M 54.671875 2.0625 C 45.703125 2.0625 37.988281 0.265625 31.53125 -3.328125 C 25.082031 -6.921875 20.109375 -12.039062 16.609375 -18.6875 C 13.117188 -25.332031 11.375 -33.285156 11.375 -42.546875 L 11.375 -103.421875 L 34.875 -103.421875 L 34.875 -44.171875 C 34.875 -28.210938 41.472656 -20.234375 54.671875 -20.234375 C 67.867188 -20.234375 74.46875 -28.210938 74.46875 -44.171875 L 74.46875 -103.421875 L 97.953125 -103.421875 L 97.953125 -42.546875 C 97.953125 -33.285156 96.203125 -25.332031 92.703125 -18.6875 C 89.210938 -12.039062 84.238281 -6.921875 77.78125 -3.328125 C 71.332031 0.265625 63.628906 2.0625 54.671875 2.0625 Z M 54.671875 2.0625 "/></g></g></g><g fill="#1f1a17" fill-opacity="1"><g transform="translate(210.941897, 159.183163)"><g><path d="M 60.578125 2.0625 C 50.035156 2.0625 40.675781 -0.222656 32.5 -4.796875 C 24.320312 -9.378906 17.921875 -15.707031 13.296875 -23.78125 C 8.671875 -31.863281 6.359375 -41.175781 6.359375 -51.71875 C 6.359375 -62.25 8.644531 -71.550781 13.21875 -79.625 C 17.800781 -87.707031 24.15625 -94.039062 32.28125 -98.625 C 40.40625 -103.207031 49.691406 -105.5 60.140625 -105.5 C 68.503906 -105.5 76.234375 -104.019531 83.328125 -101.0625 C 90.421875 -98.101562 96.453125 -93.941406 101.421875 -88.578125 C 106.398438 -83.210938 109.925781 -76.882812 112 -69.59375 L 86.734375 -69.59375 C 84.265625 -74.125 80.738281 -77.644531 76.15625 -80.15625 C 71.582031 -82.664062 66.390625 -83.921875 60.578125 -83.921875 C 54.566406 -83.921875 49.242188 -82.539062 44.609375 -79.78125 C 39.984375 -77.019531 36.363281 -73.226562 33.75 -68.40625 C 31.144531 -63.582031 29.84375 -58.019531 29.84375 -51.71875 C 29.84375 -45.507812 31.125 -39.988281 33.6875 -35.15625 C 36.25 -30.332031 39.84375 -26.515625 44.46875 -23.703125 C 49.101562 -20.898438 54.570312 -19.5 60.875 -19.5 C 68.457031 -19.5 74.757812 -21.421875 79.78125 -25.265625 C 84.800781 -29.109375 88.050781 -34.179688 89.53125 -40.484375 L 56 -40.484375 L 56 -58.65625 L 114.359375 -58.65625 C 114.953125 -49.789062 114.085938 -41.664062 111.765625 -34.28125 C 109.453125 -26.894531 105.90625 -20.46875 101.125 -15 C 96.351562 -9.53125 90.546875 -5.316406 83.703125 -2.359375 C 76.859375 0.585938 69.148438 2.0625 60.578125 2.0625 Z M 60.578125 2.0625 "/></g></g></g><g fill="#1f1a17" fill-opacity="1"><g transform="translate(338.863375, 159.183163)"><g><path d="M 1.328125 0 L 42.40625 -103.421875 L 65.453125 -103.421875 L 106.53125 0 L 81.40625 0 L 74.46875 -17.875 L 33.390625 -17.875 L 26.453125 0 Z M 39.453125 -36.34375 L 68.5625 -36.34375 L 53.921875 -74.171875 Z M 39.453125 -36.34375 "/></g></g></g><g fill="#1f1a17" fill-opacity="1"><g transform="translate(454.081567, 159.183163)"><g><path d="M 12.40625 0 L 12.40625 -103.421875 L 56.59375 -103.421875 C 64.46875 -103.421875 71.3125 -101.992188 77.125 -99.140625 C 82.9375 -96.285156 87.414062 -92.195312 90.5625 -86.875 C 93.71875 -81.5625 95.296875 -75.207031 95.296875 -67.8125 C 95.296875 -60.226562 93.570312 -53.703125 90.125 -48.234375 C 86.675781 -42.773438 81.847656 -38.664062 75.640625 -35.90625 L 97.078125 0 L 69.890625 0 L 51.421875 -32.203125 L 35.90625 -32.203125 L 35.90625 0 Z M 35.609375 -52.015625 L 53.484375 -52.015625 C 59.296875 -52.015625 63.753906 -53.367188 66.859375 -56.078125 C 69.960938 -58.785156 71.515625 -62.648438 71.515625 -67.671875 C 71.515625 -72.691406 69.960938 -76.554688 66.859375 -79.265625 C 63.753906 -81.972656 59.296875 -83.328125 53.484375 -83.328125 L 35.609375 -83.328125 Z M 35.609375 -52.015625 "/></g></g></g><g fill="#1f1a17" fill-opacity="1"><g transform="translate(565.490058, 159.183163)"><g/></g></g></g></g><g transform="matrix(1, 0, 0, 1, 277, 1029)"><g clip-path="url(#cefe34e040)"><g fill="#ff751f" fill-opacity="1"><g transform="translate(3.689753, 53.894634)"><g><path d="M 5.46875 0 L 5.46875 -37.5 L 28.234375 -37.5 L 28.234375 -33.109375 L 10.1875 -33.109375 L 10.1875 -21.265625 L 26.890625 -21.265625 L 26.890625 -16.9375 L 10.1875 -16.9375 L 10.1875 -4.390625 L 28.828125 -4.390625 L 28.828125 0 Z M 5.46875 0 "/></g></g></g><g fill="#ff751f" fill-opacity="1"><g transform="translate(78.846117, 53.894634)"><g><path d="M 5.46875 0 L 5.46875 -37.5 L 9.90625 -37.5 L 30.640625 -8.140625 L 30.640625 -37.5 L 35.25 -37.5 L 35.25 0 L 30.859375 0 L 10.125 -29.359375 L 10.125 0 Z M 5.46875 0 "/></g></g></g><g fill="#ff751f" fill-opacity="1"><g transform="translate(162.408906, 53.894634)"><g/></g></g><g fill="#ff751f" fill-opacity="1"><g transform="translate(218.55713, 53.894634)"><g><path d="M 15.859375 0 L 0.90625 -37.5 L 5.953125 -37.5 L 12.15625 -21.703125 L 18.0625 -6.796875 L 23.890625 -21.703125 L 30.171875 -37.5 L 35.140625 -37.5 L 20.25 0 Z M 15.859375 0 "/></g></g></g><g fill="#ff751f" fill-opacity="1"><g transform="translate(297.461573, 53.894634)"><g><path d="M 5.46875 0 L 5.46875 -37.5 L 28.234375 -37.5 L 28.234375 -33.109375 L 10.1875 -33.109375 L 10.1875 -21.265625 L 26.890625 -21.265625 L 26.890625 -16.9375 L 10.1875 -16.9375 L 10.1875 -4.390625 L 28.828125 -4.390625 L 28.828125 0 Z M 5.46875 0 "/></g></g></g><g fill="#ff751f" fill-opacity="1"><g transform="translate(372.617937, 53.894634)"><g><path d="M 5.46875 0 L 5.46875 -37.5 L 9.90625 -37.5 L 30.640625 -8.140625 L 30.640625 -37.5 L 35.25 -37.5 L 35.25 0 L 30.859375 0 L 10.125 -29.359375 L 10.125 0 Z M 5.46875 0 "/></g></g></g><g fill="#ff751f" fill-opacity="1"><g transform="translate(456.180726, 53.894634)"><g><path d="M 14.515625 0 L 14.515625 -33 L 1.828125 -33 L 1.828125 -37.5 L 31.875 -37.5 L 31.875 -33 L 19.234375 -33 L 19.234375 0 Z M 14.515625 0 "/></g></g></g><g fill="#ff751f" fill-opacity="1"><g transform="translate(532.782772, 53.894634)"><g><path d="M 0.90625 0 L 16.34375 -37.5 L 20.734375 -37.5 L 36.171875 0 L 31.1875 0 L 27.640625 -8.515625 L 9.375 -8.515625 L 5.953125 0 Z M 11.203125 -12.90625 L 25.875 -12.90625 L 18.53125 -30.921875 Z M 11.203125 -12.90625 "/></g></g></g><g fill="#ff751f" fill-opacity="1"><g transform="translate(612.704588, 53.894634)"><g/></g></g><g fill="#ff751f" fill-opacity="1"><g transform="translate(668.852811, 53.894634)"><g><path d="M 5.46875 0 L 5.46875 -37.5 L 18.15625 -37.5 C 20.976562 -37.5 23.4375 -36.976562 25.53125 -35.9375 C 27.625 -34.90625 29.238281 -33.453125 30.375 -31.578125 C 31.519531 -29.703125 32.09375 -27.476562 32.09375 -24.90625 C 32.09375 -22.34375 31.519531 -20.125 30.375 -18.25 C 29.238281 -16.375 27.625 -14.914062 25.53125 -13.875 C 23.4375 -12.84375 20.976562 -12.328125 18.15625 -12.328125 L 10.1875 -12.328125 L 10.1875 0 Z M 10.1875 -16.71875 L 18.0625 -16.71875 C 24.195312 -16.71875 27.265625 -19.429688 27.265625 -24.859375 C 27.265625 -30.285156 24.195312 -33 18.0625 -33 L 10.1875 -33 Z M 10.1875 -16.71875 "/></g></g></g><g fill="#ff751f" fill-opacity="1"><g transform="translate(745.936767, 53.894634)"><g><path d="M 0.90625 0 L 16.34375 -37.5 L 20.734375 -37.5 L 36.171875 0 L 31.1875 0 L 27.640625 -8.515625 L 9.375 -8.515625 L 5.953125 0 Z M 11.203125 -12.90625 L 25.875 -12.90625 L 18.53125 -30.921875 Z M 11.203125 -12.90625 "/></g></g></g><g fill="#ff751f" fill-opacity="1"><g transform="translate(825.858583, 53.894634)"><g><path d="M 5.46875 0 L 5.46875 -37.5 L 19.765625 -37.5 C 22.378906 -37.5 24.648438 -37.007812 26.578125 -36.03125 C 28.503906 -35.050781 30.003906 -33.664062 31.078125 -31.875 C 32.148438 -30.09375 32.6875 -27.953125 32.6875 -25.453125 C 32.6875 -22.410156 31.898438 -19.898438 30.328125 -17.921875 C 28.753906 -15.941406 26.59375 -14.613281 23.84375 -13.9375 L 33.265625 0 L 27.59375 0 L 18.4375 -13.453125 L 10.1875 -13.453125 L 10.1875 0 Z M 10.1875 -17.953125 L 19.234375 -17.953125 C 21.984375 -17.953125 24.109375 -18.601562 25.609375 -19.90625 C 27.109375 -21.207031 27.859375 -23.054688 27.859375 -25.453125 C 27.859375 -27.847656 27.109375 -29.703125 25.609375 -31.015625 C 24.109375 -32.335938 21.984375 -33 19.234375 -33 L 10.1875 -33 Z M 10.1875 -17.953125 "/></g></g></g><g fill="#ff751f" fill-opacity="1"><g transform="translate(905.191437, 53.894634)"><g><path d="M 0.90625 0 L 16.34375 -37.5 L 20.734375 -37.5 L 36.171875 0 L 31.1875 0 L 27.640625 -8.515625 L 9.375 -8.515625 L 5.953125 0 Z M 11.203125 -12.90625 L 25.875 -12.90625 L 18.53125 -30.921875 Z M 11.203125 -12.90625 "/></g></g></g><g fill="#ff751f" fill-opacity="1"><g transform="translate(103.801065, 126.665273)"><g><path d="M 14.515625 0 L 14.515625 -33 L 1.828125 -33 L 1.828125 -37.5 L 31.875 -37.5 L 31.875 -33 L 19.234375 -33 L 19.234375 0 Z M 14.515625 0 "/></g></g></g><g fill="#ff751f" fill-opacity="1"><g transform="translate(180.40311, 126.665273)"><g><path d="M 19.5 0.640625 C 14.96875 0.640625 11.421875 -0.769531 8.859375 -3.59375 C 6.304688 -6.414062 5.03125 -10.304688 5.03125 -15.265625 L 5.03125 -37.5 L 9.703125 -37.5 L 9.703125 -15.59375 C 9.703125 -11.769531 10.539062 -8.875 12.21875 -6.90625 C 13.894531 -4.945312 16.320312 -3.96875 19.5 -3.96875 C 26.039062 -3.96875 29.3125 -7.84375 29.3125 -15.59375 L 29.3125 -37.5 L 34.015625 -37.5 L 34.015625 -15.265625 C 34.015625 -10.304688 32.726562 -6.414062 30.15625 -3.59375 C 27.59375 -0.769531 24.039062 0.640625 19.5 0.640625 Z M 19.5 0.640625 "/></g></g></g><g fill="#ff751f" fill-opacity="1"><g transform="translate(262.306014, 126.665273)"><g/></g></g><g fill="#ff751f" fill-opacity="1"><g transform="translate(318.454238, 126.665273)"><g><path d="M 5.46875 0 L 5.46875 -37.5 L 9.90625 -37.5 L 30.640625 -8.140625 L 30.640625 -37.5 L 35.25 -37.5 L 35.25 0 L 30.859375 0 L 10.125 -29.359375 L 10.125 0 Z M 5.46875 0 "/></g></g></g><g fill="#ff751f" fill-opacity="1"><g transform="translate(402.017027, 126.665273)"><g><path d="M 5.46875 0 L 5.46875 -37.5 L 28.234375 -37.5 L 28.234375 -33.109375 L 10.1875 -33.109375 L 10.1875 -21.265625 L 26.890625 -21.265625 L 26.890625 -16.9375 L 10.1875 -16.9375 L 10.1875 -4.390625 L 28.828125 -4.390625 L 28.828125 0 Z M 5.46875 0 "/></g></g></g><g fill="#ff751f" fill-opacity="1"><g transform="translate(477.173391, 126.665273)"><g><path d="M 22.1875 0.703125 C 19.4375 0.703125 16.898438 0.21875 14.578125 -0.75 C 12.253906 -1.71875 10.234375 -3.066406 8.515625 -4.796875 C 6.804688 -6.523438 5.476562 -8.578125 4.53125 -10.953125 C 3.582031 -13.328125 3.109375 -15.925781 3.109375 -18.75 C 3.109375 -21.570312 3.570312 -24.160156 4.5 -26.515625 C 5.425781 -28.878906 6.742188 -30.9375 8.453125 -32.6875 C 10.171875 -34.4375 12.179688 -35.789062 14.484375 -36.75 C 16.796875 -37.71875 19.328125 -38.203125 22.078125 -38.203125 C 24.929688 -38.203125 27.570312 -37.679688 30 -36.640625 C 32.425781 -35.609375 34.523438 -34.160156 36.296875 -32.296875 C 38.066406 -30.441406 39.34375 -28.285156 40.125 -25.828125 L 34.984375 -25.828125 C 33.804688 -28.253906 32.109375 -30.132812 29.890625 -31.46875 C 27.679688 -32.8125 25.128906 -33.484375 22.234375 -33.484375 C 19.453125 -33.484375 16.976562 -32.859375 14.8125 -31.609375 C 12.65625 -30.359375 10.96875 -28.625 9.75 -26.40625 C 8.53125 -24.195312 7.921875 -21.644531 7.921875 -18.75 C 7.921875 -15.851562 8.535156 -13.296875 9.765625 -11.078125 C 11.003906 -8.867188 12.703125 -7.140625 14.859375 -5.890625 C 17.023438 -4.640625 19.5 -4.015625 22.28125 -4.015625 C 24.820312 -4.015625 27.070312 -4.515625 29.03125 -5.515625 C 31 -6.515625 32.597656 -7.898438 33.828125 -9.671875 C 35.066406 -11.441406 35.847656 -13.503906 36.171875 -15.859375 L 20.890625 -15.859375 L 20.890625 -20.359375 L 41.25 -20.359375 C 41.320312 -16.253906 40.5625 -12.617188 38.96875 -9.453125 C 37.382812 -6.296875 35.15625 -3.8125 32.28125 -2 C 29.40625 -0.195312 26.039062 0.703125 22.1875 0.703125 Z M 22.1875 0.703125 "/></g></g></g><g fill="#ff751f" fill-opacity="1"><g transform="translate(564.216552, 126.665273)"><g><path d="M 22.5 0.703125 C 18.71875 0.703125 15.359375 -0.125 12.421875 -1.78125 C 9.492188 -3.445312 7.207031 -5.742188 5.5625 -8.671875 C 3.925781 -11.609375 3.109375 -14.96875 3.109375 -18.75 C 3.109375 -22.570312 3.925781 -25.9375 5.5625 -28.84375 C 7.207031 -31.757812 9.492188 -34.046875 12.421875 -35.703125 C 15.359375 -37.367188 18.71875 -38.203125 22.5 -38.203125 C 26.320312 -38.203125 29.6875 -37.367188 32.59375 -35.703125 C 35.507812 -34.046875 37.796875 -31.757812 39.453125 -28.84375 C 41.117188 -25.9375 41.953125 -22.570312 41.953125 -18.75 C 41.953125 -14.96875 41.117188 -11.609375 39.453125 -8.671875 C 37.796875 -5.742188 35.507812 -3.445312 32.59375 -1.78125 C 29.6875 -0.125 26.320312 0.703125 22.5 0.703125 Z M 7.921875 -18.75 C 7.921875 -15.851562 8.535156 -13.296875 9.765625 -11.078125 C 11.003906 -8.867188 12.722656 -7.140625 14.921875 -5.890625 C 17.117188 -4.640625 19.644531 -4.015625 22.5 -4.015625 C 25.394531 -4.015625 27.929688 -4.640625 30.109375 -5.890625 C 32.285156 -7.140625 33.988281 -8.867188 35.21875 -11.078125 C 36.457031 -13.296875 37.078125 -15.851562 37.078125 -18.75 C 37.078125 -21.675781 36.457031 -24.238281 35.21875 -26.4375 C 33.988281 -28.632812 32.285156 -30.359375 30.109375 -31.609375 C 27.929688 -32.859375 25.394531 -33.484375 22.5 -33.484375 C 19.644531 -33.484375 17.117188 -32.859375 14.921875 -31.609375 C 12.722656 -30.359375 11.003906 -28.632812 9.765625 -26.4375 C 8.535156 -24.238281 7.921875 -21.675781 7.921875 -18.75 Z M 7.921875 -18.75 "/></g></g></g><g fill="#ff751f" fill-opacity="1"><g transform="translate(652.062878, 126.665273)"><g><path d="M 22.078125 0.703125 C 19.328125 0.703125 16.789062 0.21875 14.46875 -0.75 C 12.144531 -1.71875 10.132812 -3.066406 8.4375 -4.796875 C 6.738281 -6.523438 5.425781 -8.578125 4.5 -10.953125 C 3.570312 -13.328125 3.109375 -15.925781 3.109375 -18.75 C 3.109375 -21.570312 3.570312 -24.171875 4.5 -26.546875 C 5.425781 -28.921875 6.738281 -30.972656 8.4375 -32.703125 C 10.132812 -34.441406 12.144531 -35.789062 14.46875 -36.75 C 16.789062 -37.71875 19.328125 -38.203125 22.078125 -38.203125 C 25.035156 -38.203125 27.753906 -37.65625 30.234375 -36.5625 C 32.722656 -35.476562 34.847656 -33.925781 36.609375 -31.90625 C 38.378906 -29.882812 39.675781 -27.5 40.5 -24.75 L 35.46875 -24.75 C 34.5 -27.46875 32.828125 -29.601562 30.453125 -31.15625 C 28.078125 -32.707031 25.335938 -33.484375 22.234375 -33.484375 C 19.453125 -33.484375 16.988281 -32.859375 14.84375 -31.609375 C 12.695312 -30.359375 11.003906 -28.625 9.765625 -26.40625 C 8.535156 -24.195312 7.921875 -21.644531 7.921875 -18.75 C 7.921875 -15.851562 8.535156 -13.296875 9.765625 -11.078125 C 11.003906 -8.867188 12.695312 -7.140625 14.84375 -5.890625 C 16.988281 -4.640625 19.453125 -4.015625 22.234375 -4.015625 C 25.410156 -4.015625 28.226562 -4.835938 30.6875 -6.484375 C 33.15625 -8.128906 34.875 -10.363281 35.84375 -13.1875 L 40.828125 -13.1875 C 40.078125 -10.394531 38.800781 -7.960938 37 -5.890625 C 35.195312 -3.816406 33.015625 -2.195312 30.453125 -1.03125 C 27.898438 0.125 25.109375 0.703125 22.078125 0.703125 Z M 22.078125 0.703125 "/></g></g></g><g fill="#ff751f" fill-opacity="1"><g transform="translate(738.624129, 126.665273)"><g><path d="M 5.46875 0 L 5.46875 -37.5 L 10.1875 -37.5 L 10.1875 0 Z M 5.46875 0 "/></g></g></g><g fill="#ff751f" fill-opacity="1"><g transform="translate(797.128302, 126.665273)"><g><path d="M 22.5 0.703125 C 18.71875 0.703125 15.359375 -0.125 12.421875 -1.78125 C 9.492188 -3.445312 7.207031 -5.742188 5.5625 -8.671875 C 3.925781 -11.609375 3.109375 -14.96875 3.109375 -18.75 C 3.109375 -22.570312 3.925781 -25.9375 5.5625 -28.84375 C 7.207031 -31.757812 9.492188 -34.046875 12.421875 -35.703125 C 15.359375 -37.367188 18.71875 -38.203125 22.5 -38.203125 C 26.320312 -38.203125 29.6875 -37.367188 32.59375 -35.703125 C 35.507812 -34.046875 37.796875 -31.757812 39.453125 -28.84375 C 41.117188 -25.9375 41.953125 -22.570312 41.953125 -18.75 C 41.953125 -14.96875 41.117188 -11.609375 39.453125 -8.671875 C 37.796875 -5.742188 35.507812 -3.445312 32.59375 -1.78125 C 29.6875 -0.125 26.320312 0.703125 22.5 0.703125 Z M 7.921875 -18.75 C 7.921875 -15.851562 8.535156 -13.296875 9.765625 -11.078125 C 11.003906 -8.867188 12.722656 -7.140625 14.921875 -5.890625 C 17.117188 -4.640625 19.644531 -4.015625 22.5 -4.015625 C 25.394531 -4.015625 27.929688 -4.640625 30.109375 -5.890625 C 32.285156 -7.140625 33.988281 -8.867188 35.21875 -11.078125 C 36.457031 -13.296875 37.078125 -15.851562 37.078125 -18.75 C 37.078125 -21.675781 36.457031 -24.238281 35.21875 -26.4375 C 33.988281 -28.632812 32.285156 -30.359375 30.109375 -31.609375 C 27.929688 -32.859375 25.394531 -33.484375 22.5 -33.484375 C 19.644531 -33.484375 17.117188 -32.859375 14.921875 -31.609375 C 12.722656 -30.359375 11.003906 -28.632812 9.765625 -26.4375 C 8.535156 -24.238281 7.921875 -21.675781 7.921875 -18.75 Z M 7.921875 -18.75 "/></g></g></g></g></g></svg>