<svg xmlns="http://www.w3.org/2000/svg" xmlns:xlink="http://www.w3.org/1999/xlink" width="454" zoomAndPan="magnify" viewBox="0 0 340.5 98.249997" height="131" preserveAspectRatio="xMidYMid meet" version="1.0"><defs><g/><clipPath id="d0e915644e"><path d="M 30.972656 51 L 61 51 L 61 87.902344 L 30.972656 87.902344 Z M 30.972656 51 " clip-rule="nonzero"/></clipPath><clipPath id="e817d72e20"><path d="M 31 52 L 61 52 L 61 87.902344 L 31 87.902344 Z M 31 52 " clip-rule="nonzero"/></clipPath><clipPath id="a95209aa5f"><path d="M 57 9.75 L 67 9.75 L 67 19 L 57 19 Z M 57 9.75 " clip-rule="nonzero"/></clipPath><clipPath id="e921584614"><rect x="0" width="203" y="0" height="80"/></clipPath><clipPath id="dd37ec05dd"><path d="M 212.378906 48.753906 L 283.007812 48.753906 L 283.007812 87.457031 L 212.378906 87.457031 Z M 212.378906 48.753906 " clip-rule="nonzero"/></clipPath></defs><path stroke-linecap="butt" transform="matrix(0.272544, 0, 0, 0.272544, 16.041991, 7.597466)" fill="none" stroke-linejoin="miter" d="M 127.778059 21.700141 C 135.703946 17.357386 144.762102 15.79514 153.619604 14.763199 C 151.713378 17.930687 148.015586 19.191949 145.192078 21.356161 C 136.80755 27.318491 127.634734 32.779184 121.744065 41.464695 C 117.5733 47.627681 116.412366 56.52818 121.285425 62.648168 C 127.978714 70.817708 140.018036 72.021641 146.367345 80.592491 C 148.588887 83.903305 150.638438 88.934021 147.599943 92.373828 C 143.844821 95.856632 138.097478 95.068343 133.482404 94.237056 C 123.363641 91.513876 115.165436 83.87464 109.633081 75.203461 C 104.401709 66.188302 100.976235 54.951602 104.745689 44.761176 C 108.930787 34.355762 118.117936 26.874183 127.778059 21.700141 Z M 127.778059 21.700141 " stroke="#000000" stroke-width="0.1" stroke-opacity="1" stroke-miterlimit="10"/><path fill="#ff751f" d="M 50.867188 13.511719 C 53.027344 12.328125 55.496094 11.902344 57.910156 11.621094 C 57.390625 12.484375 56.382812 12.828125 55.613281 13.417969 C 53.328125 15.042969 50.828125 16.53125 49.222656 18.898438 C 48.085938 20.578125 47.769531 23.003906 49.097656 24.671875 C 50.921875 26.898438 54.203125 27.226562 55.933594 29.5625 C 56.539062 30.464844 57.097656 31.835938 56.269531 32.773438 C 55.246094 33.722656 53.679688 33.507812 52.421875 33.28125 C 49.664062 32.539062 47.429688 30.457031 45.921875 28.09375 C 44.496094 25.636719 43.5625 22.574219 44.589844 19.796875 C 45.730469 16.960938 48.234375 14.921875 50.867188 13.511719 Z M 50.867188 13.511719 " fill-opacity="1" fill-rule="nonzero"/><path stroke-linecap="butt" transform="matrix(0.272544, 0, 0, 0.272544, 16.041991, 7.597466)" fill="none" stroke-linejoin="miter" d="M 186.598746 47.885666 C 193.836672 47.197705 201.490241 50.178871 206.033652 55.940546 C 209.229805 59.53801 210.648725 64.325074 211.150364 69.026143 C 210.935376 76.206738 207.280581 83.229676 201.26092 87.228451 C 195.499245 90.897577 188.060664 92.058512 181.611027 89.636315 C 171.893574 86.612152 165.257615 75.862758 167.092178 65.829989 C 168.826414 56.384854 177.053284 48.860278 186.598746 47.885666 Z M 186.598746 47.885666 " stroke="#000000" stroke-width="0.1" stroke-opacity="1" stroke-miterlimit="10"/><path fill="#ff751f" d="M 66.898438 20.648438 C 68.871094 20.460938 70.957031 21.273438 72.195312 22.84375 C 73.066406 23.824219 73.453125 25.128906 73.589844 26.410156 C 73.53125 28.367188 72.535156 30.28125 70.894531 31.371094 C 69.324219 32.371094 67.296875 32.6875 65.539062 32.027344 C 62.890625 31.203125 61.082031 28.273438 61.582031 25.539062 C 62.054688 22.964844 64.296875 20.914062 66.898438 20.648438 Z M 66.898438 20.648438 " fill-opacity="1" fill-rule="nonzero"/><path stroke-linecap="butt" transform="matrix(0.272544, 0, 0, 0.272544, 16.041991, 7.597466)" fill="none" stroke-linejoin="miter" d="M 196.760507 113.557301 C 198.451745 111.45042 201.14626 109.458199 204.012765 109.902507 C 209.25847 110.08883 213.887876 112.92667 218.173301 115.735845 C 226.557829 121.554851 234.555379 128.219476 240.560707 136.561006 C 242.724919 139.957814 245.018123 143.999587 243.914518 148.170352 C 242.724919 153.960693 238.238838 158.547101 233.179456 161.298946 C 225.755208 165.369383 217.514005 167.648255 209.215472 169.124505 C 200.415301 170.815743 191.414475 172.664639 182.413649 171.546702 C 185.122496 169.454153 188.762958 169.382491 191.715458 167.762915 C 198.910386 163.993461 206.076649 160.138011 212.970594 155.852586 C 217.642998 153.029078 222.315401 150.03358 226.084856 146.020473 C 218.96159 137.564283 208.06887 133.551175 200.959937 125.037655 C 198.337085 121.941829 194.940276 117.842727 196.760507 113.557301 Z M 196.760507 113.557301 " stroke="#000000" stroke-width="0.1" stroke-opacity="1" stroke-miterlimit="10"/><path fill="#ff751f" d="M 69.667969 38.546875 C 70.128906 37.972656 70.863281 37.429688 71.644531 37.550781 C 73.074219 37.601562 74.335938 38.375 75.503906 39.140625 C 77.789062 40.726562 79.96875 42.542969 81.605469 44.816406 C 82.195312 45.742188 82.820312 46.84375 82.519531 47.980469 C 82.195312 49.558594 80.972656 50.808594 79.59375 51.558594 C 77.570312 52.667969 75.324219 53.289062 73.0625 53.691406 C 70.664062 54.152344 68.210938 54.65625 65.757812 54.351562 C 66.496094 53.78125 67.488281 53.761719 68.292969 53.320312 C 70.253906 52.292969 72.207031 51.242188 74.085938 50.074219 C 75.359375 49.304688 76.632812 48.488281 77.660156 47.394531 C 75.71875 45.089844 72.75 43.996094 70.8125 41.675781 C 70.097656 40.832031 69.171875 39.714844 69.667969 38.546875 Z M 69.667969 38.546875 " fill-opacity="1" fill-rule="nonzero"/><path stroke-linecap="butt" transform="matrix(0.272544, 0, 0, 0.272544, 16.041991, 7.597466)" fill="none" stroke-linejoin="miter" d="M 125.656845 144.859538 C 128.552015 144.47256 131.088872 146.264126 133.640062 147.339065 C 136.004929 148.098689 136.477902 150.893532 136.377575 153.057743 C 135.818606 158.03113 133.697392 162.732199 130.931215 166.874299 C 122.862002 179.200271 112.528251 189.863671 101.707194 199.767446 C 98.22439 203.25025 94.13962 206.790384 89.008576 207.206027 C 85.454109 207.206027 81.097021 206.217083 79.506111 202.605286 C 77.929533 199.007822 79.534776 195.123708 80.810371 191.712566 C 83.791536 184.259653 89.037241 178.125332 93.723977 171.733025 C 99.542982 164.007793 105.777631 156.411555 113.402535 150.377561 C 116.928337 147.539721 121.113434 145.389842 125.656845 144.859538 Z M 125.656845 144.859538 " stroke="#000000" stroke-width="0.1" stroke-opacity="1" stroke-miterlimit="10"/><path fill="#ff751f" d="M 50.289062 47.078125 C 51.078125 46.972656 51.769531 47.460938 52.464844 47.753906 C 53.109375 47.960938 53.238281 48.722656 53.210938 49.3125 C 53.058594 50.667969 52.480469 51.949219 51.726562 53.078125 C 49.527344 56.4375 46.710938 59.34375 43.761719 62.042969 C 42.8125 62.992188 41.699219 63.957031 40.300781 64.070312 C 39.332031 64.070312 38.144531 63.800781 37.710938 62.816406 C 37.28125 61.835938 37.71875 60.777344 38.066406 59.847656 C 38.878906 57.816406 40.308594 56.144531 41.585938 54.402344 C 43.171875 52.296875 44.871094 50.226562 46.949219 48.582031 C 47.910156 47.808594 49.050781 47.222656 50.289062 47.078125 Z M 50.289062 47.078125 " fill-opacity="1" fill-rule="nonzero"/><g clip-path="url(#d0e915644e)"><path stroke-linecap="butt" transform="matrix(0.272544, 0, 0, 0.272544, 16.041991, 7.597466)" fill="none" stroke-linejoin="miter" d="M 146.123692 165.082733 C 150.466448 163.248169 155.654822 163.36283 159.682262 165.914019 C 162.935746 169.052843 163.494714 174.097892 162.161789 178.254324 C 159.338281 187.685127 153.433281 195.783004 147.47095 203.465238 C 135.861604 218.428395 121.529077 230.897693 108.228493 244.26994 C 98.597036 253.313764 89.653539 263.102879 79.434448 271.50174 C 72.268185 277.621728 65.302577 284.014035 59.182589 291.223296 C 58.136314 292.613551 56.559736 293.416172 54.983159 294.075468 C 56.316083 289.274072 59.497904 285.260965 61.633451 280.803549 C 77.313234 256.108606 92.692035 231.213009 108.801794 206.776051 C 113.918506 199.294473 119.04955 191.798562 124.55324 184.574968 C 130.228921 176.706412 136.678558 168.493874 146.123692 165.082733 Z M 146.123692 165.082733 " stroke="#000000" stroke-width="0.1" stroke-opacity="1" stroke-miterlimit="10"/></g><g clip-path="url(#e817d72e20)"><path fill="#ff751f" d="M 55.867188 52.589844 C 57.050781 52.089844 58.464844 52.121094 59.5625 52.816406 C 60.449219 53.671875 60.601562 55.046875 60.238281 56.179688 C 59.46875 58.75 57.859375 60.957031 56.234375 63.050781 C 53.070312 67.128906 49.164062 70.527344 45.539062 74.171875 C 42.914062 76.636719 40.476562 79.304688 37.691406 81.59375 C 35.738281 83.261719 33.839844 85.003906 32.171875 86.96875 C 31.886719 87.347656 31.457031 87.566406 31.027344 87.746094 C 31.390625 86.4375 32.257812 85.34375 32.839844 84.128906 C 37.113281 77.398438 41.304688 70.613281 45.695312 63.953125 C 47.089844 61.914062 48.488281 59.871094 49.988281 57.902344 C 51.535156 55.757812 53.292969 53.519531 55.867188 52.589844 Z M 55.867188 52.589844 " fill-opacity="1" fill-rule="nonzero"/></g><g clip-path="url(#a95209aa5f)"><path fill="#ff751f" d="M 62.109375 9.753906 C 64.417969 9.753906 66.292969 11.628906 66.292969 13.941406 C 66.292969 16.25 64.417969 18.125 62.109375 18.125 C 59.796875 18.125 57.921875 16.25 57.921875 13.941406 C 57.921875 11.628906 59.796875 9.753906 62.109375 9.753906 M 62.109375 11.390625 C 60.703125 11.390625 59.558594 12.535156 59.558594 13.941406 C 59.558594 15.34375 60.703125 16.488281 62.109375 16.488281 C 63.511719 16.488281 64.65625 15.34375 64.65625 13.941406 C 64.65625 12.535156 63.511719 11.390625 62.109375 11.390625 Z M 62.109375 11.390625 " fill-opacity="1" fill-rule="nonzero"/></g><g transform="matrix(1, 0, 0, 1, 104, 9)"><g clip-path="url(#e921584614)"><g fill="#ff751f" fill-opacity="1"><g transform="translate(0.485966, 29.639215)"><g><path d="M 14.984375 0 L 2.375 0 L 2.375 -22.953125 L 4.453125 -22.953125 L 4.453125 -1.859375 L 14.984375 -1.859375 Z M 14.984375 0 "/></g></g></g><g fill="#ff751f" fill-opacity="1"><g transform="translate(15.913632, 29.639215)"><g><path d="M 3.15625 -20.328125 C 2.757812 -20.328125 2.414062 -20.472656 2.125 -20.765625 C 1.832031 -21.054688 1.6875 -21.40625 1.6875 -21.8125 C 1.6875 -22.207031 1.832031 -22.546875 2.125 -22.828125 C 2.414062 -23.109375 2.757812 -23.25 3.15625 -23.25 C 3.5625 -23.25 3.90625 -23.109375 4.1875 -22.828125 C 4.476562 -22.546875 4.625 -22.207031 4.625 -21.8125 C 4.625 -21.40625 4.476562 -21.054688 4.1875 -20.765625 C 3.90625 -20.472656 3.5625 -20.328125 3.15625 -20.328125 Z M 4.125 0 L 2.171875 0 L 2.171875 -16.515625 L 4.125 -16.515625 Z M 4.125 0 "/></g></g></g><g fill="#ff751f" fill-opacity="1"><g transform="translate(22.198975, 29.639215)"><g><path d="M 9.265625 6.734375 C 7.441406 6.734375 5.890625 6.347656 4.609375 5.578125 C 3.335938 4.804688 2.460938 3.507812 1.984375 1.6875 L 3.9375 1.6875 C 4.28125 2.789062 4.859375 3.617188 5.671875 4.171875 C 6.484375 4.722656 7.671875 5 9.234375 5 C 11.140625 5 12.515625 4.578125 13.359375 3.734375 C 14.203125 2.890625 14.625 1.6875 14.625 0.125 L 14.625 -3.0625 C 13.875 -1.976562 13.003906 -1.144531 12.015625 -0.5625 C 11.023438 0.0078125 9.925781 0.296875 8.71875 0.296875 C 7.300781 0.296875 6.046875 -0.0664062 4.953125 -0.796875 C 3.859375 -1.523438 3.007812 -2.539062 2.40625 -3.84375 C 1.800781 -5.15625 1.5 -6.640625 1.5 -8.296875 C 1.5 -9.960938 1.800781 -11.429688 2.40625 -12.703125 C 3.007812 -13.984375 3.859375 -14.988281 4.953125 -15.71875 C 6.046875 -16.445312 7.300781 -16.8125 8.71875 -16.8125 C 9.945312 -16.8125 11.054688 -16.515625 12.046875 -15.921875 C 13.035156 -15.335938 13.894531 -14.507812 14.625 -13.4375 L 14.625 -16.515625 L 16.578125 -16.515625 L 16.578125 -0.203125 C 16.578125 1.472656 16.28125 2.816406 15.6875 3.828125 C 15.09375 4.847656 14.25 5.585938 13.15625 6.046875 C 12.0625 6.503906 10.765625 6.734375 9.265625 6.734375 Z M 8.90625 -1.4375 C 10.03125 -1.4375 11.019531 -1.734375 11.875 -2.328125 C 12.738281 -2.921875 13.421875 -3.734375 13.921875 -4.765625 C 14.421875 -5.796875 14.671875 -6.953125 14.671875 -8.234375 C 14.671875 -9.546875 14.421875 -10.71875 13.921875 -11.75 C 13.421875 -12.78125 12.738281 -13.585938 11.875 -14.171875 C 11.019531 -14.765625 10.03125 -15.0625 8.90625 -15.0625 C 7.757812 -15.0625 6.78125 -14.757812 5.96875 -14.15625 C 5.15625 -13.5625 4.53125 -12.753906 4.09375 -11.734375 C 3.664062 -10.710938 3.453125 -9.546875 3.453125 -8.234375 C 3.453125 -6.953125 3.671875 -5.800781 4.109375 -4.78125 C 4.554688 -3.757812 5.1875 -2.945312 6 -2.34375 C 6.8125 -1.738281 7.78125 -1.4375 8.90625 -1.4375 Z M 8.90625 -1.4375 "/></g></g></g><g fill="#ff751f" fill-opacity="1"><g transform="translate(40.904646, 29.639215)"><g><path d="M 7.0625 0.296875 C 5.4375 0.296875 4.09375 -0.101562 3.03125 -0.90625 C 1.96875 -1.707031 1.4375 -2.867188 1.4375 -4.390625 C 1.4375 -5.210938 1.609375 -5.90625 1.953125 -6.46875 C 2.296875 -7.03125 2.71875 -7.488281 3.21875 -7.84375 C 3.800781 -8.25 4.445312 -8.554688 5.15625 -8.765625 C 5.863281 -8.972656 6.5 -9.140625 7.0625 -9.265625 L 12.96875 -10.4375 C 12.945312 -11.175781 12.84375 -11.832031 12.65625 -12.40625 C 12.476562 -12.976562 12.207031 -13.460938 11.84375 -13.859375 C 11.125 -14.660156 10.003906 -15.0625 8.484375 -15.0625 C 7.378906 -15.0625 6.40625 -14.753906 5.5625 -14.140625 C 4.71875 -13.535156 4.195312 -12.722656 4 -11.703125 L 2.046875 -11.703125 C 2.222656 -12.804688 2.617188 -13.734375 3.234375 -14.484375 C 3.847656 -15.234375 4.613281 -15.804688 5.53125 -16.203125 C 6.457031 -16.609375 7.453125 -16.8125 8.515625 -16.8125 C 10.578125 -16.8125 12.148438 -16.238281 13.234375 -15.09375 C 14.359375 -13.914062 14.921875 -12.171875 14.921875 -9.859375 L 14.921875 0 L 12.96875 0 L 12.96875 -3.09375 C 12.425781 -2.070312 11.660156 -1.269531 10.671875 -0.6875 C 10.148438 -0.363281 9.582031 -0.117188 8.96875 0.046875 C 8.363281 0.210938 7.726562 0.296875 7.0625 0.296875 Z M 6.921875 -1.4375 C 7.921875 -1.4375 8.863281 -1.660156 9.75 -2.109375 C 10.96875 -2.691406 11.804688 -3.566406 12.265625 -4.734375 C 12.734375 -5.910156 12.96875 -7.257812 12.96875 -8.78125 L 7.09375 -7.546875 C 6.59375 -7.453125 6.097656 -7.316406 5.609375 -7.140625 C 5.117188 -6.972656 4.691406 -6.738281 4.328125 -6.4375 C 4.046875 -6.195312 3.820312 -5.910156 3.65625 -5.578125 C 3.488281 -5.242188 3.40625 -4.847656 3.40625 -4.390625 C 3.40625 -3.453125 3.742188 -2.722656 4.421875 -2.203125 C 5.097656 -1.691406 5.929688 -1.4375 6.921875 -1.4375 Z M 6.921875 -1.4375 "/></g></g></g><g fill="#ff751f" fill-opacity="1"><g transform="translate(57.775837, 29.639215)"><g/></g></g><g fill="#ff751f" fill-opacity="1"><g transform="translate(66.200208, 29.639215)"><g><path d="M 7.1875 0 L 1.8125 0 L 1.8125 -22.953125 L 7.1875 -22.953125 L 7.1875 -13.859375 L 15.90625 -13.859375 L 15.90625 -22.953125 L 21.296875 -22.953125 L 21.296875 0 L 15.90625 0 L 15.90625 -9.046875 L 7.1875 -9.046875 Z M 7.1875 0 "/></g></g></g><g fill="#ff751f" fill-opacity="1"><g transform="translate(89.356753, 29.639215)"><g><path d="M 6.59375 0.359375 C 5.5625 0.359375 4.625 0.171875 3.78125 -0.203125 C 2.945312 -0.585938 2.273438 -1.160156 1.765625 -1.921875 C 1.253906 -2.679688 1 -3.632812 1 -4.78125 C 1 -5.800781 1.195312 -6.640625 1.59375 -7.296875 C 2 -7.960938 2.507812 -8.5 3.125 -8.90625 C 3.726562 -9.300781 4.390625 -9.59375 5.109375 -9.78125 C 5.835938 -9.976562 6.519531 -10.132812 7.15625 -10.25 L 11.578125 -11.03125 C 11.515625 -11.894531 11.285156 -12.5625 10.890625 -13.03125 C 10.503906 -13.425781 9.929688 -13.625 9.171875 -13.625 C 8.585938 -13.625 8.050781 -13.425781 7.5625 -13.03125 C 7.070312 -12.644531 6.765625 -12.09375 6.640625 -11.375 L 1.625 -11.375 C 1.84375 -12.789062 2.332031 -13.945312 3.09375 -14.84375 C 3.851562 -15.738281 4.773438 -16.390625 5.859375 -16.796875 C 6.941406 -17.210938 8.054688 -17.421875 9.203125 -17.421875 C 10.203125 -17.421875 11.160156 -17.285156 12.078125 -17.015625 C 13.003906 -16.742188 13.8125 -16.316406 14.5 -15.734375 C 15.195312 -15.128906 15.691406 -14.4375 15.984375 -13.65625 C 16.273438 -12.875 16.453125 -12.015625 16.515625 -11.078125 C 16.578125 -10.148438 16.609375 -9.15625 16.609375 -8.09375 L 16.609375 0 L 11.546875 0 L 11.546875 -2.078125 C 11.265625 -1.410156 10.863281 -0.898438 10.34375 -0.546875 C 9.84375 -0.203125 9.265625 0.03125 8.609375 0.15625 C 7.960938 0.289062 7.289062 0.359375 6.59375 0.359375 Z M 8.0625 -3.453125 C 8.664062 -3.453125 9.273438 -3.59375 9.890625 -3.875 C 10.597656 -4.195312 11.066406 -4.644531 11.296875 -5.21875 C 11.523438 -5.789062 11.648438 -6.535156 11.671875 -7.453125 L 8.578125 -6.859375 C 8.015625 -6.753906 7.582031 -6.640625 7.28125 -6.515625 C 6.976562 -6.398438 6.71875 -6.242188 6.5 -6.046875 C 6.351562 -5.898438 6.238281 -5.742188 6.15625 -5.578125 C 6.082031 -5.410156 6.046875 -5.207031 6.046875 -4.96875 C 6.046875 -4.425781 6.242188 -4.035156 6.640625 -3.796875 C 7.046875 -3.566406 7.519531 -3.453125 8.0625 -3.453125 Z M 8.0625 -3.453125 "/></g></g></g><g fill="#ff751f" fill-opacity="1"><g transform="translate(107.430881, 29.639215)"><g><path d="M 6.703125 0 L 1.65625 0 L 1.65625 -17.046875 L 6.703125 -17.046875 L 6.703125 -15.21875 C 7.285156 -16.082031 7.929688 -16.664062 8.640625 -16.96875 C 9.359375 -17.269531 10.164062 -17.421875 11.0625 -17.421875 C 12.1875 -17.421875 13.113281 -17.285156 13.84375 -17.015625 C 14.582031 -16.742188 15.164062 -16.378906 15.59375 -15.921875 C 16.03125 -15.472656 16.359375 -14.988281 16.578125 -14.46875 C 16.910156 -13.726562 17.101562 -12.984375 17.15625 -12.234375 C 17.207031 -11.492188 17.234375 -10.59375 17.234375 -9.53125 L 17.234375 0 L 12.1875 0 L 12.1875 -9.59375 C 12.1875 -10.4375 12.128906 -11.101562 12.015625 -11.59375 C 11.898438 -12.082031 11.710938 -12.457031 11.453125 -12.71875 C 11.054688 -13.144531 10.4375 -13.359375 9.59375 -13.359375 C 9.070312 -13.359375 8.617188 -13.289062 8.234375 -13.15625 C 7.859375 -13.03125 7.5625 -12.804688 7.34375 -12.484375 C 7.132812 -12.203125 6.972656 -11.832031 6.859375 -11.375 C 6.753906 -10.925781 6.703125 -10.332031 6.703125 -9.59375 Z M 6.703125 0 "/></g></g></g><g fill="#ff751f" fill-opacity="1"><g transform="translate(126.196702, 29.639215)"><g><path d="M 8.453125 0.359375 C 7.003906 0.359375 5.71875 -0.0195312 4.59375 -0.78125 C 3.476562 -1.539062 2.601562 -2.585938 1.96875 -3.921875 C 1.332031 -5.253906 1.015625 -6.796875 1.015625 -8.546875 C 1.015625 -10.285156 1.332031 -11.820312 1.96875 -13.15625 C 2.601562 -14.488281 3.476562 -15.53125 4.59375 -16.28125 C 5.71875 -17.039062 7.003906 -17.421875 8.453125 -17.421875 C 9.359375 -17.421875 10.171875 -17.269531 10.890625 -16.96875 C 11.609375 -16.664062 12.25 -16.082031 12.8125 -15.21875 L 12.8125 -22.953125 L 17.859375 -22.953125 L 17.859375 0 L 12.8125 0 L 12.8125 -1.828125 C 12.25 -0.972656 11.609375 -0.394531 10.890625 -0.09375 C 10.171875 0.207031 9.359375 0.359375 8.453125 0.359375 Z M 9.859375 -3.9375 C 10.984375 -3.9375 11.882812 -4.359375 12.5625 -5.203125 C 13.25 -6.046875 13.59375 -7.160156 13.59375 -8.546875 C 13.59375 -9.910156 13.25 -11.007812 12.5625 -11.84375 C 11.882812 -12.6875 10.984375 -13.109375 9.859375 -13.109375 C 8.742188 -13.109375 7.84375 -12.679688 7.15625 -11.828125 C 6.476562 -10.984375 6.140625 -9.890625 6.140625 -8.546875 C 6.140625 -7.203125 6.476562 -6.097656 7.15625 -5.234375 C 7.84375 -4.367188 8.742188 -3.9375 9.859375 -3.9375 Z M 9.859375 -3.9375 "/></g></g></g><g fill="#ff751f" fill-opacity="1"><g transform="translate(145.714355, 29.639215)"><g><path d="M 11.0625 0.359375 C 10.164062 0.359375 9.359375 0.207031 8.640625 -0.09375 C 7.929688 -0.394531 7.285156 -0.972656 6.703125 -1.828125 L 6.703125 0 L 1.65625 0 L 1.65625 -22.953125 L 6.703125 -22.953125 L 6.703125 -15.21875 C 7.285156 -16.082031 7.929688 -16.664062 8.640625 -16.96875 C 9.359375 -17.269531 10.164062 -17.421875 11.0625 -17.421875 C 12.53125 -17.421875 13.820312 -17.039062 14.9375 -16.28125 C 16.050781 -15.53125 16.921875 -14.488281 17.546875 -13.15625 C 18.179688 -11.820312 18.5 -10.285156 18.5 -8.546875 C 18.5 -6.796875 18.179688 -5.253906 17.546875 -3.921875 C 16.921875 -2.585938 16.050781 -1.539062 14.9375 -0.78125 C 13.820312 -0.0195312 12.53125 0.359375 11.0625 0.359375 Z M 9.65625 -3.9375 C 10.78125 -3.9375 11.679688 -4.367188 12.359375 -5.234375 C 13.046875 -6.097656 13.390625 -7.203125 13.390625 -8.546875 C 13.390625 -9.890625 13.046875 -10.984375 12.359375 -11.828125 C 11.679688 -12.679688 10.78125 -13.109375 9.65625 -13.109375 C 8.550781 -13.109375 7.648438 -12.6875 6.953125 -11.84375 C 6.265625 -11.007812 5.921875 -9.910156 5.921875 -8.546875 C 5.921875 -7.160156 6.265625 -6.046875 6.953125 -5.203125 C 7.648438 -4.359375 8.550781 -3.9375 9.65625 -3.9375 Z M 9.65625 -3.9375 "/></g></g></g><g fill="#ff751f" fill-opacity="1"><g transform="translate(165.232008, 29.639215)"><g><path d="M 6.59375 0.359375 C 5.5625 0.359375 4.625 0.171875 3.78125 -0.203125 C 2.945312 -0.585938 2.273438 -1.160156 1.765625 -1.921875 C 1.253906 -2.679688 1 -3.632812 1 -4.78125 C 1 -5.800781 1.195312 -6.640625 1.59375 -7.296875 C 2 -7.960938 2.507812 -8.5 3.125 -8.90625 C 3.726562 -9.300781 4.390625 -9.59375 5.109375 -9.78125 C 5.835938 -9.976562 6.519531 -10.132812 7.15625 -10.25 L 11.578125 -11.03125 C 11.515625 -11.894531 11.285156 -12.5625 10.890625 -13.03125 C 10.503906 -13.425781 9.929688 -13.625 9.171875 -13.625 C 8.585938 -13.625 8.050781 -13.425781 7.5625 -13.03125 C 7.070312 -12.644531 6.765625 -12.09375 6.640625 -11.375 L 1.625 -11.375 C 1.84375 -12.789062 2.332031 -13.945312 3.09375 -14.84375 C 3.851562 -15.738281 4.773438 -16.390625 5.859375 -16.796875 C 6.941406 -17.210938 8.054688 -17.421875 9.203125 -17.421875 C 10.203125 -17.421875 11.160156 -17.285156 12.078125 -17.015625 C 13.003906 -16.742188 13.8125 -16.316406 14.5 -15.734375 C 15.195312 -15.128906 15.691406 -14.4375 15.984375 -13.65625 C 16.273438 -12.875 16.453125 -12.015625 16.515625 -11.078125 C 16.578125 -10.148438 16.609375 -9.15625 16.609375 -8.09375 L 16.609375 0 L 11.546875 0 L 11.546875 -2.078125 C 11.265625 -1.410156 10.863281 -0.898438 10.34375 -0.546875 C 9.84375 -0.203125 9.265625 0.03125 8.609375 0.15625 C 7.960938 0.289062 7.289062 0.359375 6.59375 0.359375 Z M 8.0625 -3.453125 C 8.664062 -3.453125 9.273438 -3.59375 9.890625 -3.875 C 10.597656 -4.195312 11.066406 -4.644531 11.296875 -5.21875 C 11.523438 -5.789062 11.648438 -6.535156 11.671875 -7.453125 L 8.578125 -6.859375 C 8.015625 -6.753906 7.582031 -6.640625 7.28125 -6.515625 C 6.976562 -6.398438 6.71875 -6.242188 6.5 -6.046875 C 6.351562 -5.898438 6.238281 -5.742188 6.15625 -5.578125 C 6.082031 -5.410156 6.046875 -5.207031 6.046875 -4.96875 C 6.046875 -4.425781 6.242188 -4.035156 6.640625 -3.796875 C 7.046875 -3.566406 7.519531 -3.453125 8.0625 -3.453125 Z M 8.0625 -3.453125 "/></g></g></g><g fill="#ff751f" fill-opacity="1"><g transform="translate(183.306135, 29.639215)"><g><path d="M 8.875 0 L 5.46875 0 C 4.226562 0 3.265625 -0.296875 2.578125 -0.890625 C 1.898438 -1.484375 1.5625 -2.320312 1.5625 -3.40625 L 1.5625 -22.953125 L 6.625 -22.953125 L 6.625 -5.140625 C 6.625 -4.679688 6.738281 -4.390625 6.96875 -4.265625 C 7.195312 -4.148438 7.410156 -4.09375 7.609375 -4.09375 L 8.875 -4.09375 Z M 8.875 0 "/></g></g></g><g fill="#ff751f" fill-opacity="1"><g transform="translate(192.869484, 29.639215)"><g><path d="M 8.875 0 L 5.46875 0 C 4.226562 0 3.265625 -0.296875 2.578125 -0.890625 C 1.898438 -1.484375 1.5625 -2.320312 1.5625 -3.40625 L 1.5625 -22.953125 L 6.625 -22.953125 L 6.625 -5.140625 C 6.625 -4.679688 6.738281 -4.390625 6.96875 -4.265625 C 7.195312 -4.148438 7.410156 -4.09375 7.609375 -4.09375 L 8.875 -4.09375 Z M 8.875 0 "/></g></g></g><g fill="#ff751f" fill-opacity="1"><g transform="translate(0.485966, 71.649652)"><g><path d="M 4.453125 0 L 2.375 0 L 2.375 -22.953125 L 10.3125 -22.953125 C 12.519531 -22.953125 14.285156 -22.410156 15.609375 -21.328125 C 16.929688 -20.242188 17.59375 -18.628906 17.59375 -16.484375 C 17.59375 -14.421875 16.941406 -12.820312 15.640625 -11.6875 C 14.335938 -10.550781 12.5625 -9.984375 10.3125 -9.984375 L 4.453125 -9.984375 Z M 4.453125 -21.078125 L 4.453125 -11.796875 L 10.046875 -11.796875 C 11.828125 -11.796875 13.1875 -12.195312 14.125 -13 C 15.070312 -13.800781 15.546875 -14.941406 15.546875 -16.421875 C 15.546875 -17.910156 15.0625 -19.054688 14.09375 -19.859375 C 13.132812 -20.671875 11.785156 -21.078125 10.046875 -21.078125 Z M 4.453125 -21.078125 "/></g></g></g><g fill="#ff751f" fill-opacity="1"><g transform="translate(19.131499, 71.649652)"><g><path d="M 7.28125 0.296875 C 5.269531 0.296875 3.785156 -0.539062 2.828125 -2.21875 C 2.546875 -2.726562 2.335938 -3.328125 2.203125 -4.015625 C 2.078125 -4.703125 2.015625 -5.488281 2.015625 -6.375 L 2.015625 -16.515625 L 3.96875 -16.515625 L 3.96875 -6.28125 C 3.96875 -4.863281 4.207031 -3.765625 4.6875 -2.984375 C 5.332031 -1.953125 6.335938 -1.4375 7.703125 -1.4375 C 8.960938 -1.4375 10.015625 -1.890625 10.859375 -2.796875 C 11.503906 -3.492188 11.96875 -4.425781 12.25 -5.59375 C 12.539062 -6.757812 12.6875 -8.222656 12.6875 -9.984375 L 12.6875 -16.515625 L 14.640625 -16.515625 L 14.640625 0 L 12.6875 0 L 12.6875 -2.765625 C 11.40625 -0.722656 9.601562 0.296875 7.28125 0.296875 Z M 7.28125 0.296875 "/></g></g></g><g fill="#ff751f" fill-opacity="1"><g transform="translate(35.912471, 71.649652)"><g><path d="M 4.09375 0 L 2.140625 0 L 2.140625 -16.515625 L 4.09375 -16.515625 L 4.09375 -13.75 C 4.769531 -14.8125 5.550781 -15.585938 6.4375 -16.078125 C 7.320312 -16.566406 8.34375 -16.8125 9.5 -16.8125 C 10.519531 -16.8125 11.40625 -16.582031 12.15625 -16.125 C 12.914062 -15.664062 13.515625 -15.050781 13.953125 -14.28125 C 14.359375 -13.582031 14.59375 -12.859375 14.65625 -12.109375 C 14.726562 -11.359375 14.765625 -10.703125 14.765625 -10.140625 L 14.765625 0 L 12.8125 0 L 12.8125 -10.234375 C 12.8125 -11.648438 12.570312 -12.75 12.09375 -13.53125 C 11.46875 -14.550781 10.460938 -15.0625 9.078125 -15.0625 C 7.816406 -15.0625 6.765625 -14.613281 5.921875 -13.71875 C 5.335938 -13.070312 4.882812 -12.1875 4.5625 -11.0625 C 4.25 -9.945312 4.09375 -8.4375 4.09375 -6.53125 Z M 4.09375 0 "/></g></g></g><g fill="#ff751f" fill-opacity="1"><g transform="translate(52.693443, 71.649652)"><g><path d="M 3.15625 -20.328125 C 2.757812 -20.328125 2.414062 -20.472656 2.125 -20.765625 C 1.832031 -21.054688 1.6875 -21.40625 1.6875 -21.8125 C 1.6875 -22.207031 1.832031 -22.546875 2.125 -22.828125 C 2.414062 -23.109375 2.757812 -23.25 3.15625 -23.25 C 3.5625 -23.25 3.90625 -23.109375 4.1875 -22.828125 C 4.476562 -22.546875 4.625 -22.207031 4.625 -21.8125 C 4.625 -21.40625 4.476562 -21.054688 4.1875 -20.765625 C 3.90625 -20.472656 3.5625 -20.328125 3.15625 -20.328125 Z M 4.125 0 L 2.171875 0 L 2.171875 -16.515625 L 4.125 -16.515625 Z M 4.125 0 "/></g></g></g><g fill="#ff751f" fill-opacity="1"><g transform="translate(58.978785, 71.649652)"><g><path d="M 7.015625 0 L 5.5 0 C 4.394531 0 3.546875 -0.265625 2.953125 -0.796875 C 2.367188 -1.328125 2.078125 -2.34375 2.078125 -3.84375 L 2.078125 -22.953125 L 4.03125 -22.953125 L 4.03125 -4.15625 C 4.03125 -3.351562 4.128906 -2.75 4.328125 -2.34375 C 4.523438 -1.945312 5.054688 -1.75 5.921875 -1.75 L 7.015625 -1.75 Z M 7.015625 0 "/></g></g></g><g fill="#ff751f" fill-opacity="1"><g transform="translate(66.888102, 71.649652)"><g><path d="M 7.015625 0 L 5.5 0 C 4.394531 0 3.546875 -0.265625 2.953125 -0.796875 C 2.367188 -1.328125 2.078125 -2.34375 2.078125 -3.84375 L 2.078125 -22.953125 L 4.03125 -22.953125 L 4.03125 -4.15625 C 4.03125 -3.351562 4.128906 -2.75 4.328125 -2.34375 C 4.523438 -1.945312 5.054688 -1.75 5.921875 -1.75 L 7.015625 -1.75 Z M 7.015625 0 "/></g></g></g><g fill="#ff751f" fill-opacity="1"><g transform="translate(74.797419, 71.649652)"><g><path d="M 7.0625 0.296875 C 5.4375 0.296875 4.09375 -0.101562 3.03125 -0.90625 C 1.96875 -1.707031 1.4375 -2.867188 1.4375 -4.390625 C 1.4375 -5.210938 1.609375 -5.90625 1.953125 -6.46875 C 2.296875 -7.03125 2.71875 -7.488281 3.21875 -7.84375 C 3.800781 -8.25 4.445312 -8.554688 5.15625 -8.765625 C 5.863281 -8.972656 6.5 -9.140625 7.0625 -9.265625 L 12.96875 -10.4375 C 12.945312 -11.175781 12.84375 -11.832031 12.65625 -12.40625 C 12.476562 -12.976562 12.207031 -13.460938 11.84375 -13.859375 C 11.125 -14.660156 10.003906 -15.0625 8.484375 -15.0625 C 7.378906 -15.0625 6.40625 -14.753906 5.5625 -14.140625 C 4.71875 -13.535156 4.195312 -12.722656 4 -11.703125 L 2.046875 -11.703125 C 2.222656 -12.804688 2.617188 -13.734375 3.234375 -14.484375 C 3.847656 -15.234375 4.613281 -15.804688 5.53125 -16.203125 C 6.457031 -16.609375 7.453125 -16.8125 8.515625 -16.8125 C 10.578125 -16.8125 12.148438 -16.238281 13.234375 -15.09375 C 14.359375 -13.914062 14.921875 -12.171875 14.921875 -9.859375 L 14.921875 0 L 12.96875 0 L 12.96875 -3.09375 C 12.425781 -2.070312 11.660156 -1.269531 10.671875 -0.6875 C 10.148438 -0.363281 9.582031 -0.117188 8.96875 0.046875 C 8.363281 0.210938 7.726562 0.296875 7.0625 0.296875 Z M 6.921875 -1.4375 C 7.921875 -1.4375 8.863281 -1.660156 9.75 -2.109375 C 10.96875 -2.691406 11.804688 -3.566406 12.265625 -4.734375 C 12.734375 -5.910156 12.96875 -7.257812 12.96875 -8.78125 L 7.09375 -7.546875 C 6.59375 -7.453125 6.097656 -7.316406 5.609375 -7.140625 C 5.117188 -6.972656 4.691406 -6.738281 4.328125 -6.4375 C 4.046875 -6.195312 3.820312 -5.910156 3.65625 -5.578125 C 3.488281 -5.242188 3.40625 -4.847656 3.40625 -4.390625 C 3.40625 -3.453125 3.742188 -2.722656 4.421875 -2.203125 C 5.097656 -1.691406 5.929688 -1.4375 6.921875 -1.4375 Z M 6.921875 -1.4375 "/></g></g></g></g></g><g clip-path="url(#dd37ec05dd)"><path fill="#ff751f" d="M 283.292969 48.753906 L 283.292969 87.742188 L 212.378906 87.742188 L 212.378906 48.753906 L 283.292969 48.753906 " fill-opacity="1" fill-rule="nonzero"/></g><path fill="#0f0f0f" d="M 281.007812 51.457031 L 281.007812 85.035156 L 214.679688 85.035156 L 214.679688 51.457031 L 281.007812 51.457031 " fill-opacity="1" fill-rule="nonzero"/><path fill="#265697" d="M 280.445312 52.003906 L 280.445312 84.488281 L 215.230469 84.488281 L 215.230469 52.003906 L 280.445312 52.003906 " fill-opacity="1" fill-rule="nonzero"/><path fill="#0f0f0f" d="M 252.730469 68.34375 C 252.730469 71.046875 250.539062 73.238281 247.835938 73.238281 C 245.132812 73.238281 242.941406 71.046875 242.941406 68.34375 C 242.941406 65.640625 245.132812 63.449219 247.835938 63.449219 C 250.539062 63.449219 252.730469 65.640625 252.730469 68.34375 " fill-opacity="1" fill-rule="nonzero"/><path fill="#ff751f" d="M 252.386719 68.34375 C 252.386719 70.855469 250.347656 72.894531 247.835938 72.894531 C 245.324219 72.894531 243.289062 70.855469 243.289062 68.34375 C 243.289062 65.832031 245.324219 63.796875 247.835938 63.796875 C 250.347656 63.796875 252.386719 65.832031 252.386719 68.34375 " fill-opacity="1" fill-rule="nonzero"/><path fill="#0f0f0f" d="M 219.386719 79.980469 L 215.214844 79.980469 L 215.214844 56.742188 L 219.386719 56.742188 C 223.984375 56.742188 227.707031 60.464844 227.707031 65.0625 L 227.707031 71.660156 C 227.707031 76.257812 223.984375 79.980469 219.386719 79.980469 " fill-opacity="1" fill-rule="nonzero"/><path fill="#ff751f" d="M 219.304688 79.53125 L 215.214844 79.53125 L 215.214844 57.191406 L 219.304688 57.191406 C 223.742188 57.191406 227.339844 60.789062 227.339844 65.226562 L 227.339844 71.492188 C 227.339844 75.933594 223.742188 79.53125 219.304688 79.53125 " fill-opacity="1" fill-rule="nonzero"/><path fill="#0f0f0f" d="M 276.285156 79.980469 L 280.460938 79.980469 L 280.460938 56.742188 L 276.285156 56.742188 C 271.691406 56.742188 267.964844 60.464844 267.964844 65.0625 L 267.964844 71.660156 C 267.964844 76.257812 271.691406 79.980469 276.285156 79.980469 " fill-opacity="1" fill-rule="nonzero"/><path fill="#ff751f" d="M 276.371094 79.53125 L 280.460938 79.53125 L 280.460938 57.191406 L 276.371094 57.191406 C 271.929688 57.191406 268.332031 60.789062 268.332031 65.226562 L 268.332031 71.492188 C 268.332031 75.933594 271.929688 79.53125 276.371094 79.53125 " fill-opacity="1" fill-rule="nonzero"/><path fill="#0f0f0f" d="M 221.75 84.558594 L 215.214844 84.558594 L 215.214844 84.230469 L 221.71875 84.230469 C 227.789062 83.085938 232.195312 77.8125 232.195312 71.6875 L 232.195312 65.03125 C 232.195312 57.992188 226.40625 52.261719 219.292969 52.261719 L 215.214844 52.261719 L 215.214844 51.933594 L 219.292969 51.933594 C 221.078125 51.933594 222.808594 52.28125 224.441406 52.964844 C 226.015625 53.625 227.429688 54.566406 228.644531 55.769531 C 229.859375 56.972656 230.8125 58.375 231.480469 59.933594 C 232.167969 61.550781 232.519531 63.265625 232.519531 65.03125 L 232.519531 71.6875 C 232.519531 77.976562 227.996094 83.390625 221.765625 84.554688 L 221.75 84.558594 " fill-opacity="1" fill-rule="nonzero"/><path fill="#0f0f0f" d="M 247.996094 84.558594 L 247.675781 84.558594 L 247.675781 51.933594 L 247.996094 51.933594 L 247.996094 84.558594 " fill-opacity="1" fill-rule="nonzero"/><path fill="#0f0f0f" d="M 229.734375 70.171875 L 229.566406 70.171875 C 229.421875 70.171875 229.304688 70.054688 229.304688 69.914062 L 229.304688 66.582031 C 229.304688 66.4375 229.421875 66.320312 229.566406 66.320312 L 229.734375 66.320312 C 229.875 66.320312 229.992188 66.4375 229.992188 66.582031 L 229.992188 69.914062 C 229.992188 70.054688 229.875 70.171875 229.734375 70.171875 " fill-opacity="1" fill-rule="nonzero"/><path fill="#0f0f0f" d="M 216.148438 73.304688 L 214.253906 73.304688 L 214.253906 63.15625 L 216.148438 63.15625 L 216.148438 73.304688 " fill-opacity="1" fill-rule="nonzero"/><path fill="#0f0f0f" d="M 273.921875 84.558594 L 280.460938 84.558594 L 280.460938 84.230469 L 273.953125 84.230469 C 267.882812 83.085938 263.480469 77.8125 263.480469 71.6875 L 263.480469 65.03125 C 263.480469 57.992188 269.265625 52.261719 276.382812 52.261719 L 280.460938 52.261719 L 280.460938 51.933594 L 276.382812 51.933594 C 274.597656 51.933594 272.863281 52.28125 271.234375 52.964844 C 269.65625 53.625 268.242188 54.566406 267.027344 55.769531 C 265.8125 56.972656 264.859375 58.375 264.191406 59.933594 C 263.503906 61.550781 263.152344 63.265625 263.152344 65.03125 L 263.152344 71.6875 C 263.152344 77.976562 267.675781 83.390625 273.90625 84.554688 L 273.921875 84.558594 " fill-opacity="1" fill-rule="nonzero"/><path fill="#0f0f0f" d="M 265.941406 70.171875 L 266.109375 70.171875 C 266.25 70.171875 266.367188 70.054688 266.367188 69.914062 L 266.367188 66.582031 C 266.367188 66.4375 266.25 66.320312 266.109375 66.320312 L 265.941406 66.320312 C 265.796875 66.320312 265.679688 66.4375 265.679688 66.582031 L 265.679688 69.914062 C 265.679688 70.054688 265.796875 70.171875 265.941406 70.171875 " fill-opacity="1" fill-rule="nonzero"/><path fill="#0f0f0f" d="M 279.527344 72.628906 L 281.417969 72.628906 L 281.417969 62.480469 L 279.527344 62.480469 L 279.527344 72.628906 " fill-opacity="1" fill-rule="nonzero"/></svg>